/* XPM */
static char *sync3-3[] = {
/* width height num_colors chars_per_pixel */
"    64    48      208            2",
/* colors */
".. c #040204",
".# c #ac8264",
".a c #ecc2a4",
".b c #c4a284",
".c c #5c422c",
".d c #846244",
".e c #b49274",
".f c #a46e4c",
".g c #2c2214",
".h c #cc926c",
".i c #d4ae8c",
".j c #f4d2b4",
".k c #7c5234",
".l c #bc8664",
".m c #d4a27c",
".n c #bc9a7c",
".o c #4c3224",
".p c #eccaac",
".q c #a47a5c",
".r c #f4be94",
".s c #6c4e34",
".t c #946244",
".u c #e4be9c",
".v c #ac8a6c",
".w c #d4aa84",
".x c #14120c",
".y c #7c5a3c",
".z c #c4926c",
".A c #fcf2d4",
".B c #cc9a74",
".C c #3c2e24",
".D c #ecb68c",
".E c #dca27c",
".F c #b47a54",
".G c #b4825c",
".H c #f4c29c",
".I c #6c462c",
".J c #dcb694",
".K c #9c7654",
".L c #8c5e3c",
".M c #d49a74",
".N c #8c6a4c",
".O c #e4ae84",
".P c #ac7a54",
".Q c #946a4c",
".R c #24160c",
".S c #ccaa8c",
".T c #8c6244",
".U c #bc926c",
".V c #a47654",
".W c #3c2a1c",
".X c #dcae8c",
".Y c #fcd2ac",
".Z c #9c6e4c",
".0 c #bc8e6c",
".1 c #c49a7c",
".2 c #74563c",
".3 c #845a3c",
".4 c #0c0a04",
".5 c #cca27c",
".6 c #e4b69c",
".7 c #d4a68c",
".8 c #f4caa4",
".9 c #744e34",
"#. c #ecbe94",
"## c #b48a64",
"#a c #c4967c",
"#b c #fcfadc",
"#c c #cc9e84",
"#d c #fcdabc",
"#e c #f4c6ac",
"#f c #ecb28c",
"#g c #ac8664",
"#h c #64422c",
"#i c #342214",
"#j c #84563c",
"#k c #543624",
"#l c #dcaa84",
"#m c #c4966c",
"#n c #cc9e74",
"#o c #ecba9c",
"#p c #dca67c",
"#q c #b4866c",
"#r c #f4c69c",
"#s c #744a34",
"#t c #5c3a2c",
"#u c #e4b294",
"#v c #ac7e64",
"#w c #9c6a44",
"#x c #2c1e14",
"#y c #8c6644",
"#z c #bc967c",
"#A c #dcb28c",
"#B c #fcd6bc",
"#C c #9c724c",
"#D c #c49e7c",
"#E c #845e3c",
"#F c #f4ceb4",
"#G c #745234",
"#H c #b48e74",
"#I c #ecc6a4",
"#J c #fce6c4",
"#K c #a4724c",
"#L c #cc967c",
"#M c #7c563c",
"#N c #e4ba94",
"#O c #bc8a64",
"#P c #4c3624",
"#Q c #a47e5c",
"#R c #946644",
"#S c #1c120c",
"#T c #442e1c",
"#U c #ecba94",
"#V c #b48664",
"#W c #6c4a34",
"#X c #d49e74",
"#Y c #e4b28c",
"#Z c #ac7e5c",
"#0 c #fcfeec",
"#1 c #2c1a14",
"#2 c #140a04",
"#3 c #0c0604",
"#4 c #543a24",
"#5 c #ac7654",
"#6 c #c48e6c",
"#7 c #442a1c",
"#8 c #ecbea4",
"#9 c #cc9674",
"a. c #d4b294",
"a# c #f4d6bc",
"aa c #b47e5c",
"ab c #fcceac",
"ac c #241a14",
"ad c #fceecc",
"ae c #fcd6b4",
"af c #f4ceac",
"ag c #b48e6c",
"ah c #fcdeb4",
"ai c #64462c",
"aj c #34261c",
"ak c #443224",
"al c #140e0c",
"am c #e4aa84",
"an c #e4ba9c",
"ao c #5c3e2c",
"ap c #1c160c",
"aq c #ac826c",
"ar c #84624c",
"as c #b4927c",
"at c #fce2c4",
"au c #7c523c",
"av c #946e54",
"aw c #e4b694",
"ax c #d4a284",
"ay c #d4aa8c",
"az c #7c5a44",
"aA c #c49274",
"aB c #fcf2dc",
"aC c #cc9a7c",
"aD c #ecb694",
"aE c #b48264",
"aF c #f4c2a4",
"aG c #6c4634",
"aH c #dcb69c",
"aI c #9c765c",
"aJ c #8c5e44",
"aK c #e4ae8c",
"aL c #ac7a5c",
"aM c #946a54",
"aN c #8c624c",
"aO c #bc9274",
"aP c #a4765c",
"aQ c #dcae94",
"aR c #fcd2b4",
"aS c #9c6e54",
"aT c #bc8e74",
"aU c #c49a84",
"aV c #845a44",
"aW c #cca284",
"aX c #f4caac",
"aY c #744e3c",
"aZ c #ecbe9c",
"a0 c #b48a6c",
"a1 c #ac866c",
"a2 c #d4a684",
"a3 c #dcaa8c",
"a4 c #c49674",
"a5 c #cc9e7c",
"a6 c #dca684",
"a7 c #f4c6a4",
"a8 c #9c6a4c",
"a9 c #8c664c",
"b. c #dcb294",
"b# c #9c7254",
"ba c #c49e84",
"bb c #845e44",
"bc c #74523c",
"bd c #ecc6ac",
"be c #a47254",
"bf c #bc8a6c",
"bg c #4c362c",
"bh c #a47e64",
"bi c #94664c",
"bj c #d49e7c",
"bk c #fcfef4",
"bl c #fceed4",
"bm c #fcdebc",
"bn c #644634",
/* pixels */
"................................................................................................................................",
"................................................................................................................................",
"................................................................................................................................",
"................................................................................................................................",
"................................................................................................................................",
"................................................................................................................................",
"................................................................................................................................",
"................................................................................................................................",
"................................................................................................................................",
"................................................................................................................................",
"..............................................................................................................alal..............",
".......................................................................4#Sacac.Cbg#Pak#4.c#4ao#W.s.9#W#E.t#j.3#M#G#4............",
"................................#3al.x#S#x.W#7#T.cbn.9.2.Z.VaL.G.B#p#pa2.w.m#m.l.#.GaL.GaPaP.G.#aEbfbfa0aga0.0#Vbi#Wap..........",
"..................#1#4aoai.9.k#M.L.Ta8.Z.PaE.z.max#A#U#U#..D#YaK#pa6#pbjbj.Ba5a5bj.maxa2ax#Dba.n.e#g#vb#b#.Qa9be.Q.I#x..........",
"..................ao.I.9.9#M.yaV.L.3.Qa8.Q.Qa8.F#5.V.fbe.Z.Z.Z#K.Za8#y#R.T.t.T.T.LaJ#EaJ.T.3aJ#ybi.T.T.dbia8.Tb#.Q.k#i..........",
".................x#h#W#W.9aV.Q#MaY.k.9#G.9.k#M#M.db#.K.K.Ka0#V#q##a0#qbf.l#O#6.h#O.l.z.#.laEaEaL.PaPaLb#.Vb##R.Vb#aY#i..........",
"................alao#W#s#G#M.q.T#M.Tbi.Q.#bf.maD#r.Yaebmahae.Y.8.H#Y#l.Oa6bj.B.B.z.0#6.h#V#V.G#OaE.#aL#ZaPb#.Zav#Zbc#T..........",
"................#Sai#W#W#sbbb##w.Tbbavb#.q.U#L#l#u.8aZ.Yaf.Y.8.H#.aKa6.O.Ebj#9#9#9bfbf.z#V#V#V.#.#aL#V#Z#Z#Z.Vb#.q#j#T..........",
"................ac#h.9.k.9.yaL.Q#jbi.ZaSaP#V.0aCa6#U#u.H#r#r.H#U#Ua3bj.XbjaCa4#9#9#9#9.0#6aA.z#O##bf#VaE#Z.qbebe.##E#P..........",
"................#x.I#W#W#G.TaP.L.Tbb.T.Q.qaPa0a4.Bax#laK.X.raD#f#Ya6a5a6.m.Ma5bj.B#X.B.z#9aAbf.0bf.##q#V.#aEb#.Z#V.3ao..........",
"................#x.I.s.9#sbb.##R.y.3bi.Z.Z#Z.G.0aAaOa6.mbj#YaK#l#lbja5.EaC#p.m.Ea4aCaAbj.1a4#9a4aAaA.z.0bf#q#Qa8a0.T#h..........",
"................aj.I#W#W.9.QaIaJ#M.T.T.Ta9.P.qaE#Vbfa4a4#L#pam.m.Ea5aCa5.Ba6.Ea5a5aAa5a5.Ba5.maCaCaOa4aAagbf#V.Qbf.Q.c..........",
".................W.I.9#W.9a9#V.T.L#MaV.d.ZaMbeaP#Q#V.0#6aTa4#n.M.m#LaC#9.ma5bj.Bbjax#la5a6a5#c.5bja2a5#a.1aA#V.Ta0av.I..........",
".................W#Wai.9.9.Q.#.Tbc#M.T.Ta8a9aSb#aP.l#v#O.0aA.Ba4bj.B#Xa4a5a4aC.1.maKa5#fa3a2.Xa3.Xaxa2.5#aa4aO#RaA.q#s.4........",
".................W#W.9#W.9avaE.3.3.yaVbb.T.Z#C.Vb#.G.q.##OaE.zaA.M.U#9aAaCa4#aaxaxa2a2aya3#Uaw#uay#u.i.7a3ax.1#Ra1#Z.9al........",
"................#k#W#s.9.9aI.#aJbc#M.3.Tbb.Tbi.Zb#.qaPaa#V#v#6.0.zaO.Ba0aCa4a5#la6aWaK#u.Jb.aZan.Hanawb..7a2#c#Ebfa0.I#S........",
"................#k#W#W.I#W.qbh.Lbc.3bb#EbibbaN.ZaS.Z.P#ZaEaP#O#V.0#6.MaAa4a5ax.5ay.X#NaFaFaZ#e#I.a.aaF#o#Nb.#laS#Va4.s.R........",
".................oai.9.s.9#g.l#R#M#M.3.3aJbb#yaN.QaM.PaP#ZaI.l#Vbf.0a4aAa4.ma6#caW#Uan#o#IafaXaX#F.Y#I.a.6away.Q.qba.9ac........",
"..............#3#4#W.I#W#Wa0.qbb.9bcaubb.3.Ta8.Ta9.Zb#aS.q.VaE#V#V#6.0#9aOax.maWa3aw#o#8bdaXbm#dbm.j.jaXa7aHb.beaP.i.k#i........",
"...............4ao.9.9.9.9#z#v.3.3.3.3#M.Tbbbb.Qbi#Cb#b#b#.V#Z#ZaE.0a0a4aA.5.1a3awa..aab.jaeatbl.Aad#Baf#I#8aw.K.Va.auaj........",
"..............#3aoai.9aG.9.1av#M#GaY#M.3aV#M.3bi#y.Q.Q.ZaS.q#Z#QaE##aEaAaOa5.1a3awawaF#IaRbm.A#0bkaBbm.jaX.ub.#v.QaH#M#T........",
"..............#Sao.9#W.9#G.baLaJ.9bcau.3.ybb.T.TaN#yaN.NaS.qaP.qaE##bhbfaOaOa5a3ay#o.u.aaX#dbl#0bk#bataR.a#8#o.#.Z.J.y.o........",
"..............alao#W#W.I#W.SaS#M#M.3#M#M#MaJ.TaV.TbbaNbi.Q.VaS.K#v#V#v#qagaTa5aWa2awan#e.Ya#bm#J.Aata#aX#Ian.i#vaNb.#M#P........",
"..............#Sai.I#W.9bc.ib#.9.9.9.9.3#M#Mbb.yaN.T.Q.Q.Nb#b#.qaL.#bh.##qa0a5aUaWayawa7#I.jae#B.jaRaf.panan#ua0.Taya9#4........",
"..............ac#h#W#W#W.9baa9#j#Maubc#M#Mau#Mbbbbbb.Q.Q.Q.VaM#ZaP.#.q.#a0aTaT#za2ayaQanan#8#eafafbd#I#8an.iaya0.Ta2aN#h........",
"..............#x#hai#W#W#M#c.Q.9#G#M#M.k.2.L.2aJ.d#Rbi.Q.Q.NaN.qb#.G.qbh#qaAag#aa5ay.7aQb..aanan.a#8anb.b.ayaWaq#j.1a9#4........",
"..............#x.I.9#W#W#G.n.Q.k#M#W#G#M.3aV#E.3aVbb#ya9aNaSar.Vb##Z.q.q#gaAa1aOa4#caWa3.Xb.awanb.awb..iay.7aWa0.TaTarai#3......",
"..............#iai#W.I#W.3.ea8au.9.k#M#MaY#Mbb#M.TbbbbaN#y.QaNb#b#.qaI#vbh#V#q.0#H#Ha5#Dba.b.7.7ayayayaxaWa5#za1.3#gaSaG.4......",
"...............WaG#W.9#WauaO#R#W#G#W#M.k#Mau#MaV.3#MazaVa9.Tarb#b#aP#Z.q.##v#V#q.va0aOaOaUa5aWaUaWaUbaba#aaOaOa1#jbhav.Ial......",
"...............W#W#W#h#WaV.vaV.kbc.9.9bc#M.3bc.3#Mbb.yaV.Tbbbb.Qa8b#be.K.Vb#.##Q#v#q.#.#.#.##q###q.#.##vbh.qaPb#.3aP.VaGap......",
"..............#T#h#W.9ai#MaM#G.kau#G.9#M#M.3#GaV#EaJ.3.T.TaJ.Tbba9bi#y.Qa9.Q.QaS.Z.ZavaSaS.Zb#.Vbeb#.Vb#beb#aSbe.QaIav.s.R......",
"..............#kai#sai#W.9.s.9#W#W.9#M.9#G#Mau.2aJ.yaVbb.T.dbia9a9.QaSavaPaL#Q#va1a0a0.v.1#D.1ba.1.nas#a#zaOa0a1.#bhaS#Wac......",
"..............#i#4ao#taoaoaoao#tao#h.caoao#h#h.c#haoai#h#h.cai#h#h#WaiaG#WaGaiaGai.Ibn#W#saiaG#W#W.IaG.s.Iau#W#W#Wai.Iaoal......",
"................alap.x#S#S#S.R.x#S#S#S#S#Sap#S#S#S#S.R#S#S#S#S#Sap#S#S#Sap#S#S#Sac#1#x#x#1#x#x#x#1#x.g#1ac#x#x#x#x#xac#2........",
"................................................................................................................................",
"................................................................................................................................",
"................................................................................................................................",
"................................................................................................................................"
};
SIMPLE  =                    T                                                  BITPIX  =                    8                                                  NAXIS   =                    2                                                  NAXIS1  =                   64                                                  NAXIS2  =                   48                                                  HISTORY Written by XV 3.10a                                                     END                                                                                                                                                                                                                                                                                                                                                                                                                                                                                                                                                                                                                                                                                                                                                                                                                                                                                                                                                                                                                                                                                                                                                                                                                                                                                                                                                                                                                                                                                                                                                                                                                                                                                                                                                                                                                                                                                                                                                                                                                                                                                                                                                                                                                                                                                                                                                                                                                                                                                                                                                                                                                                                                                                                                                                     "!  " #  !            &BDBCFDGCCJHCEKIHHEMKJGLJJOKOQONOMLMQRNNRQOOSO\SOQMOB          =NSOOVTVRPX[WYaZ\hcbhikpootyxxQ          3LPTM`sY[Z[X`^b]cgfgjmjlhoqorosvzvxxzyy}}{|}{y~tzQ          ,PQLPdd\ZVT\^cYc_fbdjeftwy~~{zdP          0NRTP\qRZR^^]\]dd^aeoki{|axO          'NQPSbu\VZ^\X]h^kffmnrk}zbxO          "NURRZr[^SX^begadepnkzj~|þjkL           JKTN^sWY^`\\f\iioqtsrm|ĽbpB          KSPRWn`_\\]`[^figsurq¹mkH           KNOX[}XXVWa``fejkpvp|}¾nlB           GQPOSx^]b`\bhlejilqsx~Ÿka:           EUSVXgW[^bbekjmnjrxċyb9           FNTOUu`XX]cd_crmvtvzǼsa1           
CSWXVbccc`jhhrpy{y~ʾ])           
BROPPgXX]geivmoy}wѿ|[%            8NXTWo_^ceggmnts¿tW             >PPPThZegfrelu{wzT            =QUTV~iZ^akgkry{eP            0QURXvbbbehlv||rT            /QOTYsl]_imvnw}qU            /OUSUplf`ciwv}kvM            'ORRYseaklkpssI            !NSUTfr`cpwyvjL             "OSTYkikgns¿~xeE             KUZVctbpxzľ÷|}e:             KRRTg|rjgv|ƻy`4             FPUY^k`jpsͼ~wy[5             JRPUes^YZYZYY``i{~{}}zp{W'             EOVX^aefcrusuv|~yxx~zupolnlkihfjkehmnnjjqtjztZ&              CENZ[`jluy¾z{sq}vN#                     	$-13IOX]zoR                                        	0<:7EGEDUUZShncc^[=                                                                                                                                                                                                                                                                                                                                                                                                                                                                                                                                                                                                                                                                                                                                                                                                                                                                                                                                                                                                                                                                                                                                                                                                                                                                                                                                                                                                                                                                                                                                                                                                                                                                                                                                                                                                                                                                                                                                                                                                                                                                                                                                                                                                                                                                                                                                                                                                                                                                                                                                                                                                                                                                                                                                                                                                                                                                                                                                                                                                                                                                                                                                                                                                                                                                                                                                                                                                                                                                                                                                  