/* XPM */
static char *clink0[] = {
/* width height num_colors chars_per_pixel */
"    64    48      111            2",
/* colors */
".. c #474747",
".# c #494949",
".a c #4a4a4a",
".b c #4b4b4b",
".c c #4c4c4c",
".d c #4d4d4d",
".e c #4e4e4e",
".f c #4f4f4f",
".g c #505050",
".h c #515151",
".i c #525252",
".j c #535353",
".k c #545454",
".l c #565656",
".m c #575757",
".n c #585858",
".o c #595959",
".p c #5a5a5a",
".q c #5b5b5b",
".r c #5c5c5c",
".s c #5d5d5d",
".t c #5e5e5e",
".u c #5f5f5f",
".v c #606060",
".w c #616161",
".x c #626262",
".y c #636363",
".z c #646464",
".A c #656565",
".B c #666666",
".C c #676767",
".D c #696969",
".E c #6a6a6a",
".F c #6b6b6b",
".G c #6c6c6c",
".H c #6d6d6d",
".I c #6e6e6e",
".J c #6f6f6f",
".K c #707070",
".L c #717171",
".M c #727272",
".N c #737373",
".O c #747474",
".P c #757575",
".Q c #767676",
".R c #777777",
".S c #787878",
".T c #797979",
".U c #7a7a7a",
".V c #7b7b7b",
".W c #7c7c7c",
".X c #7d7d7d",
".Y c #7e7e7e",
".Z c #7f7f7f",
".0 c #808080",
".1 c #818181",
".2 c #828282",
".3 c #838383",
".4 c #848484",
".5 c #858585",
".6 c #868686",
".7 c #878787",
".8 c #888888",
".9 c #898989",
"#. c #8a8a8a",
"## c #8b8b8b",
"#a c #8c8c8c",
"#b c #8d8d8d",
"#c c #8e8e8e",
"#d c #8f8f8f",
"#e c #909090",
"#f c #919191",
"#g c #929292",
"#h c #939393",
"#i c #949494",
"#j c #959595",
"#k c #969696",
"#l c #979797",
"#m c #989898",
"#n c #999999",
"#o c #9a9a9a",
"#p c #9b9b9b",
"#q c #9c9c9c",
"#r c #9d9d9d",
"#s c #9e9e9e",
"#t c #9f9f9f",
"#u c #a0a0a0",
"#v c #a1a1a1",
"#w c #a2a2a2",
"#x c #a3a3a3",
"#y c #a4a4a4",
"#z c #a5a5a5",
"#A c #a6a6a6",
"#B c #a7a7a7",
"#C c #a8a8a8",
"#D c #a9a9a9",
"#E c #ababab",
"#F c #acacac",
"#G c #adadad",
"#H c #aeaeae",
"#I c #afafaf",
"#J c #b2b2b2",
"#K c #b3b3b3",
"#L c #b4b4b4",
"#M c #b5b5b5",
"#N c #b6b6b6",
"#O c #b7b7b7",
"#P c #b8b8b8",
"#Q c #b9b9b9",
"#R c #bababa",
"#S c #bbbbbb",
/* pixels */
".0.0.0.0.0.0.0.0.0.0.0.0.0.0.0.0.0.0.0.0.0.0.0.0.0.0.0.0.0.0.0.0.0.0.0.0.0.0.0.0.0.0.0.0.0.0.0.0.0.0.0.0.0.0.0.0.0.0.0.0.0.0.0.0",
".0.0.0.0.0.0.0.0.0.0.0.0.0.0.0.0.0.0.0.0.0.0.0.0.0.0.0.0.0.0.0.0.0.0.0.0.0.0.0.0.0.0.0.0.0.0.0.0.0.0.0.0.0.0.0.0.0.0.0.0.0.0.0.0",
".0.0.0.0.0.0.0.0.0.0.0.0.0.0.0.0.0.0.0.0.0.0.0.0.0.0.0.0.0.0.0.0.0.0.0.0.0.0.0.0.0.0.0.0.0.0.0.0.0.0.0.0.0.0.0.0.0.0.0.0.0.0.0.0",
".0.0.0.0.0.0.0.0.0.0.0.0.0.0.0.0.0.0.0.0.0.0.0.0.0.0.0.0.0.0.0.0.0.0.0.0.0.0.0.0.0.0.0.0.0.0.0.0.0.0.0.0.0.0.0.0.0.0.0.0.0.0.0.0",
".0.0.0.0.0.0.0.0.0.0.0.0.0.0.0.0.0.0.0.0.0.0.0.0.0.0.0.0.0.0.0.0.0.0.0.0.0.0.0.0.0.0.0.0.0.0.0.0.0.0.0.0.0.0.0.0.0.0.0.0.0.0.0.0",
".0.0.0.0.0.0.0.0.0.0.0.0.0.0.0.0.0.0.0.0.0.0.0.0.0.0.0.0.0.0.0.0.0.0.0.0.0.0.0.0.0.0.0.0.0.0.0.0.0.0.0.0.0.0.0.0.0.0.0.0.0.0.0.0",
".0.0.0.0.0.0.0.0.0.0.0.0.0.0.0.0.0.0.0.0.0.0.0.0.0.0.0.0.0.0.0.0.0.0.0.0.0.0.0.0.0.0.0.0.0.0.0.0.0.0.0.0.0.0.0.0.0.0.0.0.0.0.0.0",
".0.0.0.0.0.0.0.0.0.0.0.0.0.0.0.0.0.0.0.0.0.0.0.0.0.0.0.0.0.0.0.0.0.0.0.0.0.0.0.0.0.0.0.0.0.0.0.0.0.0.0.0.0.0.0.0.0.0.0.0.0.0.0.0",
".0.0.0.0.0.0.0.0.0.0.0.0.0.0.0.0.0.0.0.0.0.0.0.0.0.0.0.0.0.0.0.0.0.0.0.0.0.0.0.0.0.0.0.0.0.0.0.0.0.0.0.0.0.0.0.0.0.0.0.0.0.0.0.0",
".0.0.0.0.0.0.3###e#g#d#a##.6.5.2.0.0.0.0.0.0.0.0.0.0.0.0.0.0.0.0.0.0.0.0.0.0.0.0.0.0.0.0.0.0.0.0.0.0.0.0.0.0.0.0.0.0.0.0.0.0.0.0",
".0.0.0.0.0.1#e#v#A#y#x#x#z#z#A#D#D#G#E#C#C#x#v#v#r#p#j#c#..4.0.0.0.0.0.0.0.0.0.0.0.0.0.0.0.0.0.0.0.0.0.0.0.0.0.0.0.0.0.0.0.0.0.0",
".0.0.0.0.0.4#n#z#t#k#i#m#t#A#F#J#N#S#Q#Q#R#Q#P#Q#M#N#R#P#R#Q#N#N#I#D#B#u#p#m#h#e#a.8.6.3.0.0.0.0.0.0.0.0.0.0.0.0.0.0.0.0.0.0.0.0",
".0.0.0.0.0.6#o#r#c.5.5.5.5.4.0.X.0.Z.0.4#a#h#l#t#u#z#H#I#M#Q#O#S#O#L#K#G#F#H#C#D#D#A#A#A#y#A#v#p#q#m#j#g#c#..3.0.0.0.0.0.0.0.0.0",
".0.0.0.0.0.8#o#p#a.6.3.4.3.W.R.O.P.K.G.J.I.H.G.G.I.G.J.F.E.H.F.I.P.T.1.5#b#j#g#o#u#t#v#y#y#D#D#w#B#y#w#w#u#u#f.2.0.0.0.0.0.0.0.0",
".0.0.0.0.0#.#o#o##.3.2.3.3.Y.3#.#c#..7.9.5.3.X.V.P.L.K.I.F.D.B.F.H.F.H.L.P.M.L.Q.T.P.R.T.V.V.Y.W.6.8.7#b#i#n.9.P.U.0.0.0.0.0.0.0",
".0.0.0.0.0#.#n#n#..2.2.3.3.X.4#..8###c#f#e#g#i#h#e#f#h#i#e#####c.7.1.5.6.3.Z.X.X.V.R.V.T.T.U.U.Q.T.X.U.0#h#c.L.s.I.0.0.0.0.0.0.0",
".0.0.0.0.0#a#q#p#b.3.6.5.3.V.3#..2.1.1.2.2.2.1.X.Y.1.4.4.5.5####.3.3#d#c.9#..9#b#..9.8.5.3.6.3.2.3.2.0.8#v#e.E.o.F.0.0.0.0.0.0.0",
".0.0.0.0.0#b#p#o#a.3.5.5.4.W.3#..1.3.1.Y.1.0.Z.Y.Z.2.2.3.1.W.0.Y.T.X.6.3.U.V.V.Y.0.2.0.0.0.3.3.1.4.3.3###s.3.t.l.C.0.0.0.0.0.0.0",
".0.0.0.0.0#c#p#l##.2.2.5.3.X.4#..0.3.5.4.5.4.1.4.2.4.2.2.1.X.2.1.W.1.4.1.V.U.Y.W.V.V.Y.Z.0.0.0.Y.1.Y.X.7#q.2.q.i.z.0.0.0.0.0.0.0",
".0.0.0.0.0#d#s#p#c.2.2.5.3.Y.4#..6.4.2.2.6.6.3.5.5.2.1.1.1.Z.3.3.W.0.2.Y.V.T.Z.Z.U.W.X.Y.Z.Z.0.0.Z.X.X.3#k.3.v.k.z.0.0.0.0.0.0.0",
".0.0.0.0.0#i#t#l##.3.3.8.4.Z.5.9.4.5.3.1.2.3.2.2.4.1.1.0.3.1.1.Y.T.1.Z.W.Y.Z.1.2.Z.0.Z.X.X.Y.Z.Y.Z.Y.X.6#l.5.t.h.y.Z.0.0.0.0.0.0",
".0.0.0.0.0#j#u#j.9.0.1.7.3.W.5.8.4.2.3.4.5.3.3.2.3.4.2.2.2.2.1.0.W.4.Z.U.2.3.1.1.2.2.1.1.Y.W.Z.1.X.X.Z.6#l#d.B.f.v.X.0.0.0.0.0.0",
".0.0.0.0.1#j#s#h##.4.3.9.3.X.5.7.4.3.3.5.8#..6.4.4.6.3.5.4.2.4.2.Y.5.X.U.4.1.X.W.Y.V.W.Y.0.Y.0.0.Y.X.X.4#j#b.z.d.w.X.0.0.0.0.0.0",
".0.0.0.0.1#k#s#g#..4.3##.3.V.7.9.5.6.8.8.7.7.8.9.8.6.5.7.2.0.6.3.Y.3.Y.W.4.0.W.V.V.V.V.Y.Z.Z.1.Z.X.X.Y.1#f#h.D.f.w.W.0.0.0.0.0.0",
".0.0.0.0.2#k#t#j#a.3.3#a.1.S.6#..8.7.8.7.9.6.8.9#..8.7.9.2.Y.5.2.Y.3.Y.Z.1.U.U.X.X.Z.Z.0.X.Y.Y.Z.W.Y.Y.3#f#j.G.d.u.R.0.0.0.0.0.0",
".0.0.0.0.5#m#u#k#b.3.2#d.0.Q.8#..5.8.7.6.8#..8.7.7.5.5.7.0.X.4.2.X.Z.Z.Z.Y.T.X.0.0.Z.1.Y.Y.X.X.W.Y.X.Z.1#e#o.H.a.r.Q.0.0.0.0.0.0",
".0.0.0.0.6#m#s#h.8.1.3#c.W.P#a##.8.7.7.9.9#..7.5.6.4.2.5.0.U.1.0.0.Y.Z.X.V.T.1.1.Y.U.W.X.Z.Y.Z.Y.Y.X.0.2#a#p.M.b.r.P.0.0.0.0.0.0",
".0.0.0.0.7#m#s#h.8.1.2#g.X.P#d#a.7.7.8.9#..9.9.8.9.6.4.5.0.X.3.2.Z.V.X.U.R.V.0.X.U.T.V.Z.X.X.X.Z.Z.Y.X.2.7#p.L...p.M.0.0.0.0.0.0",
".0.0.0.0.8#p#u#j.8.4.5#f.T.P#e.8.5.7.8.7.7.6.9####.9.6.2.0.Y.2.0.X.R.U.U.T.X.Y.V.U.0.1.0.Z.Y.Z.Y.W.Y.Z.0.7#s.R.#.p.M.0.0.0.0.0.0",
".0.0.0.0.9#o#t#f.6.3.3#j.U.O#g.9.6.8.8.8.8.8#.#b#b#a#..0.Z.Y.0.0.X.T.X.W.R.Z.U.V.X.1.Z.W.V.X.X.Y.Z.W.Y.1.9#u.W.e.p.K.0.0.0.0.0.0",
".0.0.0.0#.#o#s#f.5.1.2#i.T.P#j.8.5.7.8.9.9.7.8#.###..5.V.X.Z.Y.Z.X.Q.Q.V.S.Y.T.V.Y.U.T.T.U.W.V.W.W.W.Y.0.6#r.V.c.m.G.0.0.0.0.0.0",
".0.0.0.0#b#p#s#g.5.2.3#k.R.J#e.6.4.5.6.5.3.3.5.6.8.4.U.M.Q.U.T.T.Q.L.L.V.T.S.T.U.W.U.V.W.0.0.Z.Y.W.V.Y.Z.4#p.Y.i.k.F.0.0.0.0.0.0",
".0.0.0.0#d#p#p#d.4.1.2#h.R.O#e.4.3.6.5.2.1.2.3.3.2.W.M.K.Q.S.Q.S.S.N.N.0.X.R.X.X.U.X.Z.Z.Y.X.X.Y.Z.0.0.Y.6#r.2.k.j.E.0.0.0.0.0.0",
".0.0.0.0#e#r#o#g.4.0.2#f.O.O#d.2.3.2.3.5.6.3.2.1.W.S.K.M.S.T.R.S.T.P.N.X.Y.T.0.Z.W.Y.X.V.V.U.U.V.X.X.0.X.4#m.3.n.e.C.0.0.0.0.0.0",
".0.0.0.0#g#r#m#c.2.0.3#e.O.P#d.1.5.4.2.2.1.0.0.Z.U.R.P.Q.T.R.P.S.S.O.N.Y.X.T.V.V.V.W.V.V.V.Y.0.Z.Z.Y.X.Y.2#g.5.r.d.B.0.0.0.0.0.0",
".0.0.0.0#j#t#l##.0.1.5#a.R.U#d.1.2.3.Z.Z.Z.W.W.W.T.S.T.S.S.Q.O.P.T.Q.O.V.V.T.R.S.V.V.W.Z.X.W.W.V.Y.Z.Z.Z.3#f#..x.c.B.0.0.0.0.0.0",
".0.0.0.0#j#t#j#d.3.3.2.8.Q.T##.Y.0.1.0.1.0.Y.X.U.U.T.U.S.Q.Q.P.P.R.Q.R.U.T.R.R.S.V.V.X.Z.Y.Y.X.X.Z.Y.X.W.1#a#b.C.d.z.Z.0.0.0.0.0",
".0.0.0.1#j#r#g#..1.1.5.7.R.V.9.0.3.2.1.Y.X.Y.Y.V.W.U.S.R.P.S.S.Q.T.R.R.U.T.T.U.T.X.V.V.T.W.X.X.Z.Z.Y.Y.Y.2###b.G.c.y.X.0.0.0.0.0",
".0.0.0.2#k#r#h##.0.Z.5.4.O.S.4.S.T.T.Q.M.O.R.N.M.S.Q.O.N.L.Q.Q.M.P.Q.Q.O.P.R.V.W.Y.W.W.X.X.W.U.W.X.U.V.X.0.8#d.G.d.x.W.0.0.0.0.0",
".0.0.0.3#l#s#g#..1.1.4.0.O.Q.X.N.N.M.K.L.M.M.G.G.H.F.D.F.F.I.I.F.I.K.L.N.M.O.R.T.U.W.V.X.Y.W.X.Z.1.X.Z.0.0.2.9.H.g.x.U.0.0.0.0.0",
".0.0.0.4#l#r#d.6.X.Y.1.1.W.Z.8.7.6.8##.9#.##.5###..6.1.3.4.2.2.Z.0.Z.Y.X.W.Y.0.1.V.W.W.Z.Y.Y.X.Y.X.Y.Y.1.0.Z.0.H.j.x.R.0.0.0.0.0",
".0.0.0.1#h#k.6.X.Q.N.N.L.H.L.O.Q.P.R.R.O.N.P.N.N.O.N.M.M.N.J.L.K.K.L.K.K.L.L.P.P.J.K.L.L.O.O.M.O.N.N.O.Q.Q.P.N.G.k.t.Q.0.0.0.0.0",
".0.0.0.0.7.6.O.F.A.y.z.x.s.s.r.q.p.o.m.j.i.k.f.f.f.c.#.a.a.#.c.d.f.h.g.j.l.m.m.o.m.q.u.s.u.r.t.u.w.w.x.w.y.x.x.u.m.v.S.0.0.0.0.0",
".0.0.0.0.1.W.G.A.y.y.z.z.y.z.A.z.A.z.z.y.z.y.w.x.y.x.v.v.x.x.y.y.y.z.w.x.z.y.x.A.x.A.A.z.A.z.y.z.A.z.A.A.z.z.A.y.A.I.Y.0.0.0.0.0",
".0.0.0.0.0.Y.U.P.O.O.P.Q.O.P.Q.O.O.O.P.O.O.O.P.P.Q.P.Q.Q.T.T.T.S.T.T.S.U.U.S.T.U.T.T.T.S.S.T.T.U.T.T.T.T.T.T.S.T.V.0.0.0.0.0.0.0",
".0.0.0.0.0.0.0.0.0.0.0.0.0.0.0.0.0.0.0.0.0.0.0.0.0.0.0.0.0.0.0.0.0.0.0.0.0.0.0.0.0.0.0.0.0.0.0.0.0.0.0.0.0.0.0.0.0.0.0.0.0.0.0.0",
".0.0.0.0.0.0.0.0.0.0.0.0.0.0.0.0.0.0.0.0.0.0.0.0.0.0.0.0.0.0.0.0.0.0.0.0.0.0.0.0.0.0.0.0.0.0.0.0.0.0.0.0.0.0.0.0.0.0.0.0.0.0.0.0",
".0.0.0.0.0.0.0.0.0.0.0.0.0.0.0.0.0.0.0.0.0.0.0.0.0.0.0.0.0.0.0.0.0.0.0.0.0.0.0.0.0.0.0.0.0.0.0.0.0.0.0.0.0.0.0.0.0.0.0.0.0.0.0.0"
};
SIMPLE  =                    T                                                  BITPIX  =                    8                                                  NAXIS   =                    2                                                  NAXIS1  =                   64                                                  NAXIS2  =                   48                                                  HISTORY Written by XV 3.10a                                                     END                                                                                                                                                                                                                                                                                                                                                                                                                                                                                                                                                                                                                                                                                                                                                                                                                                                                                                                                                                                                                                                                                                                                                                                                                                                                                                                                                                                                                                                                                                                                                                                                                                                                                                                                                                                                                                                                                                                                                                                                                                                                                                                                                                                                                                                                                                                                                                                                                                                                                             €€€€€€€€€€€€€€€€€€€€€€€€€€€€€€€€€€€€€€€€€€€€€€€€€€€€€€€€€€€€€€€€€€€€€€€€€€€€€€€€€€€€€€€€€€€€€€€€€€€€€€€€€€€€€€€€€€€€€€€€€€€€€€€€€€€€€€€€€€€€€€€€€€€€€€€€€€€€€€€€€€€€€€€€€€€€€€€€€€€€€€€€€€€€€€€€€€€€€~zuttuvtuvtttutttuuvuvvyyyxyyxzzxyzyyyxxyyzyyyyyyxy{€€€€€€€€€€€|leccddcdededdcdcabcb``bbcccdabdcbebeededcdedeeddecen~€€€€€€€€€‡†tkecdb]]\[ZYWSRTOOOLIJJILMOQPSVWWYW[_]_\^_aabacbb_W`x€€€€€€€€“–†}vssqmqtvuwwtsusstsrrsoqppqppqquuopqqttrtsstvvuslT^v€€€€€€€€„—†}~|ˆ‡†ˆ‹‰Š‹…‹Š†ƒ„‚‚€~}|~€{||~~}~}~~€€mSbw€€€€€€€€ƒ—’Š„€tv}ssrpqrrllmkikknnknpqsrtwyz|{}~|}}€€‚‰mPbz€€€€€€€€‚–“‹€…„tx„xyyvrtwsrxvtsqvvruvvtuw{|~||}}|z|}z{}€ˆlMb|€€€€€€€€•’Š…‡w{‰€ƒ‚~}~~{|zxwuxxvywwzyyzy}{{y|}}~~~‚‹lLc}€€€€€€€€€•Ÿ•ƒƒ‚ˆvy‹~€€€~}zzyzxvvuuwvwzywwx{{}~~}}~}|ŒgMd€€€€€€€€€•Ÿ—‹€…Œwz‚ƒ|||yxyxxvtuyvt{{ywx{{|}||{~ƒ‘ŠbLf€€€€€€€€€€’˜‚€ƒtu…„‚‚€€zwuvywuxxts~}y{{{|{{{~€~}~‚’…\Mf€€€€€€€€€€š’„€‚‘tt‚ƒ‚ƒ…†ƒ‚|xprxywxyus}~y€|~}{{zz{}}€}„˜ƒXNg€€€€€€€€€€››„‚“wt„ƒ†…‚‚ƒƒ‚|rpvxvxxss€}w}}z}~}}~€€~†‚TSj€€€€€€€€€€›’…‚ƒ–wo†„…†…ƒƒ…†ˆ„zrvzyyvqq{yxyz|z{|€€~|{~„›~RTk€€€€€€€€€€Šš‘…‚”yu•ˆ…‡ˆ‰‰‡ˆŠ‹Š…{}~}vv{x~y{~zyyz|{|||~€†{LWl€€€€€€€€€€‰šŸ‘†ƒƒ•zt’‰†ˆˆˆˆˆŠŒŠ€~€€}y}|wz{}|{}}~|~‰ |NZp€€€€€€€€€€ˆ› •ˆ„…‘yuˆ…‡ˆ‡‡†‰‹‹‰†‚€~‚€}wzzy}~{z€€~~|~€‡wIZr€€€€€€€€€€‡˜“ˆ‚’}uŒ‡‡ˆ‰Š‰‰ˆ‰†„…€}ƒ‚{}zw{€}zy{}}}~}‚‡›qGZr€€€€€€€€€€†˜“ˆƒ|uŒ‹ˆ‡‡‰‰Š‡…†„‚…€z€€~}{y~z|}~~~}€‚Œ›rK\u€€€€€€€€€€…˜ –ƒ‚€vˆŠ…ˆ‡†ˆŠˆ‡‡……‡€}„‚}~y}€€~~}}|~}šmJ\v€€€€€€€€€€‚–Ÿ•ŒƒƒŒx†Šˆ‡ˆ‡‰†ˆ‰Šˆ‡‰‚~…‚~ƒ~zz}}€}~~|~~ƒ‘•lM_w€€€€€€€€€€–’Š„ƒ‹ƒ{‡‰…†ˆˆ‡‡ˆ‰ˆ†…‡‚€†ƒ~ƒ~|„€|{{{{~}}~‘“iOa|€€€€€€€€€€•“‹„ƒ‰ƒ}…‡„ƒƒ…ˆŠ†„„†ƒ…„‚„‚~…}z„}|~{|~€~€€~}}„•dMa}€€€€€€€€€€€• •‰€‡ƒ|…ˆ„‚ƒ„…ƒƒ‚ƒ„‚‚‚‚€|„z‚ƒ‚‚~|}}†—fO`}€€€€€€€€€€€”Ÿ—‹ƒƒˆ„…‰„…ƒ‚ƒ‚‚„€ƒ~y|~‚€}}~~~}†—…^Qc€€€€€€€€€€€›‚‚…ƒ~„Š†„‚‚††ƒ……‚ƒƒ|€‚~{yz|}~€€}}ƒ–ƒ`Td€€€€€€€€€€€€›—‹‚‚…ƒ}„Š€ƒ…„…„„‚„‚‚}‚|„{z~|{{~€€€~~}‡œ‚[Rd€€€€€€€€€€€€›šŒƒ……„|ƒŠƒ~€~‚‚ƒ|€~y}†ƒz{{~€‚€€€ƒƒ„ƒƒ‹ƒ^Vg€€€€€€€€€€€€Œœ›ƒ†…ƒ{ƒŠ‚‚‚‚}~„„……‹‹ƒƒ‰Š‰Š‰ˆ…ƒ†ƒ‚ƒ‚€ˆ¡jYk€€€€€€€€€€€€Š™™Š‚‚ƒƒ}„Šˆ‹‘’”“‘“”‹‹‡…†ƒ}}{w{yyzzvy}z€“q]n€€€€€€€€€€€€Ššš‹ƒ‚ƒƒ~ƒŠŠ‡‰…ƒ}{uqpnkifkmkmqurqvyuwy{{~|†ˆ‡”™‰uz€€€€€€€€€€€€ˆš›Œ†ƒ„ƒ|wtuplonmllnlokjmknuy…•’š Ÿ¡¤¤©©¢§¤¢¢  ‘‚€€€€€€€€€€€€€†š…………„€}€€„Œ“—Ÿ ¥®¯µ¹·»·´³­¬®¨©©¦¦¦¤¦¡›œ˜•’Šƒ€€€€€€€€€€€€€€„™¥Ÿ–”˜Ÿ¦¬²¶»¹¹º¹¸¹µ¶º¸º¹¶¶¯©§ ›˜“Œˆ†ƒ€€€€€€€€€€€€€€€€€€€€€€€€€¡¦¤££¥¥¦©©­«¨¨£¡¡›•Š„€€€€€€€€€€€€€€€€€€€€€€€€€€€€€€€€€€€€€€€€ƒ‹’Œ‹†…‚€€€€€€€€€€€€€€€€€€€€€€€€€€€€€€€€€€€€€€€€€€€€€€€€€€€€€€€€€€€€€€€€€€€€€€€€€€€€€€€€€€€€€€€€€€€€€€€€€€€€€€€€€€€€€€€€€€€€€€€€€€€€€€€€€€€€€€€€€€€€€€€€€€€€€€€€€€€€€€€€€€€€€€€€€€€€€€€€€€€€€€€€€€€€€€€€€€€€€€€€€€€€€€€€€€€€€€€€€€€€€€€€€€€€€€€€€€€€€€€€€€€€€€€€€€€€€€€€€€€€€€€€€€€€€€€€€€€€€€€€€€€€€€€€€€€€€€€€€€€€€€€€€€€€€€€€€€€€€€€€€€€€€€€€€€€€€€€€€€€€€€€€€€€€€€€€€€€€€€€€€€€€€€€€€€€€€€€€€€€€€€€€€€€€€€€€€€€€€€€€€€€€€€€€€€€€€€€€€€€€€€€€€€€€€€€€€€€€€€€€€€€€€€€€€€€€€€€€€€€€€€€€€€€€€€€€€€€€€€€€€€€€€€€€€€€€€€€€€€€€€€€€€€€€€€€€€€€€€€€€€€€€€€€€€€€€€€€€€€€€€€€€€€€€€€€€€€€€€€€€€€€€€€€€€€€€€€€€€€€€€€€€€€€€€€€€€€€€€€€€€€€€€€€€€€€€€€€€€€€€€€€€                                                                                                                                                                                                                                                                                                                                                                                                                                                                                                                                                                                                                                                                                                                                                                                                                                                                                                                                                                                                                                                                                                                                                                                                                                                                                                                                                                                                                                                                                                                                                                                                                                                                                                                                                                                                                                                                                                                                                                                                                                                                                                                                                                                                                                                                                                                                                                                                                                                                                                                                                                                                                                                                                                                                                                                                