/* XPM */
static char *clink[] = {
/* width height num_colors chars_per_pixel */
"    48    36      168            2",
/* colors */
".. c #040204",
".# c #ac8264",
".a c #ecc2a4",
".b c #5c4234",
".c c #c4a284",
".d c #846244",
".e c #b49274",
".f c #a46e4c",
".g c #2c2214",
".h c #dcb294",
".i c #bc865c",
".j c #947254",
".k c #fce6cc",
".l c #cc926c",
".m c #7c523c",
".n c #d4a27c",
".o c #946244",
".p c #f4ceac",
".q c #4c3224",
".r c #ac8a6c",
".s c #a47a5c",
".t c #c49a7c",
".u c #d4aa8c",
".v c #e4ba9c",
".w c #7c5a3c",
".x c #6c4e34",
".y c #cc9a74",
".z c #946a4c",
".A c #c4926c",
".B c #bc8e6c",
".C c #b4825c",
".D c #eccaac",
".E c #b47e54",
".F c #dcaa84",
".G c #8c5e3c",
".H c #9c7a5c",
".I c #fcf6dc",
".J c #f4d6bc",
".K c #543a24",
".L c #24160c",
".M c #9c6a4c",
".N c #0c0a04",
".O c #f4c2a4",
".P c #6c4634",
".Q c #8c6a4c",
".R c #a47654",
".S c #9c724c",
".T c #b48a64",
".U c #ac7a54",
".V c #ecba9c",
".W c #845a3c",
".X c #8c6244",
".Y c #bc9274",
".Z c #3c261c",
".0 c #e4b294",
".1 c #c48a64",
".2 c #b4866c",
".3 c #5c3a2c",
".4 c #9c725c",
".5 c #b48a74",
".6 c #64422c",
".7 c #cca284",
".8 c #bc8a6c",
".9 c #fcf2d4",
"#. c #cc966c",
"## c #d4a68c",
"#a c #fcd2b4",
"#b c #d4ae8c",
"#c c #744e34",
"#d c #cc9e84",
"#e c #946e4c",
"#f c #c4967c",
"#g c #c48e64",
"#h c #dcae94",
"#i c #2c1e14",
"#j c #ac7e64",
"#k c #845e3c",
"#l c #bc9674",
"#m c #0c0604",
"#n c #ac8664",
"#o c #ecc6a4",
"#p c #a4724c",
"#q c #342214",
"#r c #bc8a64",
"#s c #84563c",
"#t c #d4a684",
"#u c #946644",
"#v c #f4d2b4",
"#w c #1c120c",
"#x c #c49e7c",
"#y c #e4be9c",
"#z c #cc9e7c",
"#A c #c49674",
"#B c #442e1c",
"#C c #dcae8c",
"#D c #fcfef4",
"#E c #543e34",
"#F c #241a14",
"#G c #9c6e4c",
"#H c #140a04",
"#I c #f4c6a4",
"#J c #ac7654",
"#K c #9c7654",
"#L c #b48e6c",
"#M c #ac7e5c",
"#N c #ecbe9c",
"#O c #8c664c",
"#P c #e4b694",
"#Q c #64462c",
"#R c #cca684",
"#S c #745234",
"#T c #040604",
"#U c #dcb69c",
"#V c #bc8664",
"#W c #fceacc",
"#X c #7c563c",
"#Y c #d4a284",
"#Z c #f4ceb4",
"#0 c #4c3624",
"#1 c #a47e64",
"#2 c #d4aa94",
"#3 c #7c5a44",
"#4 c #44362c",
"#5 c #f4caac",
"#6 c #d49e7c",
"#7 c #34261c",
"#8 c #140e0c",
"#9 c #6c4a34",
"a. c #3c2a1c",
"a# c #5c3e2c",
"aa c #9c765c",
"ab c #b48e74",
"ac c #1c160c",
"ad c #cc9a7c",
"ae c #946a54",
"af c #c49274",
"ag c #bc8e74",
"ah c #b48264",
"ai c #b47e5c",
"aj c #dcaa8c",
"ak c #8c5e44",
"al c #a4765c",
"am c #9c7254",
"an c #b48a6c",
"ao c #ac7a5c",
"ap c #845a44",
"aq c #8c624c",
"ar c #bc927c",
"as c #cc9674",
"at c #d4ae94",
"au c #946e54",
"av c #c48e6c",
"aw c #b48664",
"ax c #845e44",
"ay c #bc967c",
"az c #ac866c",
"aA c #ecc6ac",
"aB c #a47254",
"aC c #94664c",
"aD c #c49e84",
"aE c #e4bea4",
"aF c #fcd6bc",
"aG c #9c6e54",
"aH c #ecbea4",
"aI c #e4b69c",
"aJ c #644634",
"aK c #cca68c",
"aL c #74523c",
/* pixels */
"................................................................................................",
"................................................................................................",
"................................................................................................",
"................................................................................................",
"................................................................................................",
"................................................................................................",
"................................................................................................",
"............#8#8#T..............................................................................",
"...........Z.x.W.G.W.W#XaLaL#SaJaJ#E#E#4#7ac#8..................................................",
"...........K.m#kaq.zaa#Man.Bas#z#t.n#z.n.n#6.y#r.i#G#O#S#c.K.Ka..Z#i#F#8#m......................",
"..........a##Sax.Xau#uap.W#kap.X.z#G.s#n#L#l.yaf.Yav#r#rah.R.R.R.z#u#u.o.W.W#X#9#Q.L............",
".........Na##Xaxaq.z#uam#M.s#M#M.i.#.C.U#JaB#e#G.M.Xak.X.Waxak.Gak#k.G.X.W.G.W.W.za#............",
".........N.3.w#3#O.zaqam.sahaw.8.Bav#r.8av.A.1#g#Vao.iai.E.U#G.M.M.Xak.W.W.W#saBaw.6............",
"........#wa#.X.X.zam.Xam#j.s.#aw#rav.8.B.A.lav.Bah.C#V.Cao.U.U#p.M.z.M.X#uak.Xai.A#9............",
"........#8.b#kaq#Oam.Xal.sah.T.2af#Las.Aavaf#..l#r#V#V.Cao.R.fam.R.M.z#u.o.X.G.E#z#c............",
".........L#Qaq#O.zaa#uaa#1.#.2.Baf#Aas.yaf.Y.y#..8avawawaoaoam.S.M#G.M.M.X.oak#G#z#X#m..........",
".........L.P.d.Qae#1.X#j.#aw#Lan.Y.tad#z#z#A#6#A.B.Aahah.i.Cai.R#G.M.z.M#u.X.X#p#6.w#m..........",
"........#i#9#O.zau.##u#1azazan.t#Y#z#Y#d.F#t.n#z.y#6.2#V#r.#.Rao#p.R.z#u.z.Xak#p#Y.W#8..........",
"........#i.xaCauauan#Oaw.2.Y.t.t#Y#C.h#C.0#P###t#6#6.A.Bawai.s.Ram#G.f#G.X.o.X#u.F.X#w..........",
".........ZaLauauam.YaCazag#l#d.7#b#U.V.a.V#N.0.u#t#tadas.#aoawao.RaB.z#u#u#u.X.f#t.z.L..........",
"........a.#Saeau.4.e.zan.Y#d.7.haI.v.a.D.a#I#P.h#C#t#z#Aawaw#j.Ram#G#G.zaC#uak.M.nam#F..........",
"........#B#X.zamaaay.zabay.tat.haH#I#v#a#v.D.a.V.0.7#6ag.B#rao.s.RaB#GaC#u#u.X#Oasaa#i..........",
".........qax.Q.4aa.c#e.5.t##.u.vaA.J#W.9.k#aaA.a.V#t.n.Y.Bah.#aoaoam#G#GaC.X.X#u.y.##7..........",
".........qax.4.jaaaDam#fay.c#P.v#5#v.9#D.IaF.p.O#N#Rayafan#j.#.s#eaG.z#O#u.X.X#uan#L.Z..........",
".........Kaxauau.s#f#Kab#x.7at.haA#Z.k.I#W#v#o.V#P#d.t#Aazah.s.R.saG#G.zaC.Xak.Xahay#B..........",
"........a#axau.4aa.Yamagay#dataIaE#o#a#v.p#5.a#N.h#dar#Aawaw.salam#GaC#Oak.X.o.X.s.t#B..........",
".......Na#.daeau.Han.4anar#zaK.u.v#y.aaEaEaH#y#Caj#x.Y.Ban#jal.RaG#e#GaC#u.Xak.X#G#A#0..........",
"......#Ha#aq.QaGaa.#.saz.rar#d#R#2#h.haI.h.h#C.u#Y#f.Ban.#aa.samam#G#O.X.d.Gax#kaB#la#..........",
"......#w.6#Oaeauaa.saa.2.r.Y.t.t.7.u.7ataK.7.7#z#l.Yan.#.s.saGaG.Q.z#Gaq.Xakax.G.zaf.6..........",
"......#w.baq#eaeaaam#O.4aaaa.s#1anaz.Y#Aafabag.Yanaw.#aa.4.R#e#eaCaC.X.Xax#k#X#s.X.8#Q..........",
".......L.b.d.z.Qaaamau.zau.4.saa#1.#azaz.#.#.s#M.sal.RaG.M.z.M.zaC#u.o.X.oak.Gax.Wam#9..........",
"......ac.6#SaL#3#Xapapap.daq#Oaq#O#O.Qae#Oae#O.Qaq.d.X#3.Wax.w.maL#saL#c.m#c#S#c#c#9.6..........",
"........#i.Z#q.Z#7#7#7#q#7#7.Z#7.Z#q.Z#7#q#i#i#q#i#q#i#i#i#i#i#i.g#i#i#i#i#i#i#i#i#i#8..........",
"................................................................................................",
"................................................................................................",
"................................................................................................"
};
SIMPLE  =                    T                                                  BITPIX  =                    8                                                  NAXIS   =                    2                                                  NAXIS1  =                   48                                                  NAXIS2  =                   36                                                  HISTORY Written by XV 3.10a                                                     END                                                                                                                                                                                                                                                                                                                                                                                                                                                                                                                                                                                                                                                                                                                                                                                                                                                                                                                                                                                                                                                                                                                                                                                                                                                                                                                                                                                                                                                                                                                                                                                                                                                                                                                                                                                                                                                                                                                                                                                                                                                                                                                                                                                                                                                                                                                                                                                                                                                                                                                                                                                                                                                *(**()(())))'+)$#!"!%   !""  !!        HZZa_ddcijqkomrsnrpqlijccga[Za[Y[XXWWSJ       IjspÄ|vsx{ÇÅÜççéåãÜàÇÇ~zuuusqomkmigge}R       HmusÅzo|ÄÖÜííö†üòòöìèä|Äwwqplkge`alïO       Imuw{Ö~êëõ§§™≥Æ∂∞™™©†õïäÑÑxzquxmlhhhtûH        GksxÅâÑçîõ®∞≤πªø∫ª∏≤¨¢ïîçÇ|{xnlihgf{ûF        ChtxÅî{îûß≠¥ƒ≈Õ»»»≈∫∂¶õöíâÅÄwvvrokjj{†:        Cixz~ú}óû©∑¬≈–ÿŸ‘’Ã∆æ©ú°êêÇÉ}xpoillkÑü7        ?ewzÇ°~ï•≠µΩÀ◊ÁÙÏÿœ∆ø™°üéçÑÄÑyzspmhléü3         :eyz•|††™æƒ”⁄Ò˚ı›÷Œ»Ø°ùîâåÉvysppmkqíó,         8etz©vï£∞¥ƒŒ€ÏÎ⁄ŒÀƒØÆôõçãÖÖ{wwqklr¢å*         5`t{úuòù•∂Ω…–Ÿ€ÿ“À≈æ≠´ôòîÜÇÅ|yrooko£Ä          /Ysy|ôsíö®¨ª¡√…—Õœøª∏∞©üíëâÅzzxtqnjv´}         *Yyuzõpçöûß≠∂¿ƒÃ≈ Ω≥≤Ø§¢åÜêÜÅ}sqsnj{Øu         #Rquwínëêù¢•ÆπΩπΩø≤∞¨™ùôëäÇÅ{x{vmmls≥m         "RouvårÖèèï§¨ß≠´¥±¨©£ßííîãÉÉ}srsli}≠d         Pkqsâmàäêîïö••¶©¢®¢öûéèëãäÄ{usvpkkÄ™b         Lnms~nÄäãëõùû£•ûö•†òôêêáÑ}zv{usmnhyß]         Hgmm{kÄÇéíèùó¢ùõü††îîíèÖÅ{zÄtuqmkgâ®Y          Ehmq}k|áÜäêîôóóúûúóçéëçÑÖÑutulojkäúS          Dccmsm}ÇåíìôùîòöúóöìàêåàÑ{uwjidcc`êK          	B`elto}ÜÖâãèãçÖÇÄxwviikefighfjidhdauC          E\flvocbeemsyÑåñù§ûúúîïçÇrpqndc`TM          A[fmr~àíô°ßÆÆ´™¨®•ñëyo[WC?1- 	               -Vbgdea]\XSLFC7.                                                                                                                                                                                                                                                                                                                                                                                                                                                                                                                                                                                                                                                                                                                                                                                                                                                                                                                                                                                                                                                                                                                                                                                                                                                                                                                                                                                                                                                                                                                                                                                                                    