/* XPM */
static char *sync6-6[] = {
/* width height num_colors chars_per_pixel */
"    64    48      114            2",
/* colors */
".. c #040204",
".# c #745a4c",
".a c #ac866c",
".b c #4c3224",
".c c #8c725c",
".d c #946244",
".e c #6c462c",
".f c #c49e7c",
".g c #a4724c",
".h c #8c6644",
".i c #a47e5c",
".j c #745234",
".k c #845a3c",
".l c #c48e6c",
".m c #5c422c",
".n c #1c120c",
".o c #946a4c",
".p c #442e1c",
".q c #846244",
".r c #bc9274",
".s c #c4a68c",
".t c #a46e4c",
".u c #4c3a2c",
".v c #ac7e5c",
".w c #9c6a44",
".x c #140e0c",
".y c #bc8e6c",
".z c #744e34",
".A c #342214",
".B c #a47a5c",
".C c #84563c",
".D c #8c5a3c",
".E c #d49e7c",
".F c #7c5234",
".G c #140a04",
".H c #b48e74",
".I c #9c724c",
".J c #744a34",
".K c #cca284",
".L c #ac7654",
".M c #5c4a3c",
".N c #2c1a14",
".O c #5c3a2c",
".P c #3c2a1c",
".Q c #0c0a04",
".R c #6c4a2c",
".S c #cc9a74",
".T c #a4765c",
".U c #8c6e54",
".V c #a4826c",
".W c #845e3c",
".X c #c4967c",
".Y c #241a14",
".Z c #946e4c",
".0 c #ac826c",
".1 c #9c6e54",
".2 c #3c261c",
".3 c #7c5634",
".4 c #9c765c",
".5 c #0c0604",
".6 c #7c5a3c",
".7 c #543624",
".8 c #946644",
".9 c #a47654",
"#. c #64422c",
"## c #24160c",
"#a c #443224",
"#b c #8c6244",
"#c c #d4aa8c",
"#d c #543a24",
"#e c #ac8264",
"#f c #9c6e4c",
"#g c #34261c",
"#h c #8c5e3c",
"#i c #9c7654",
"#j c #b48a6c",
"#k c #cc9e7c",
"#l c #040604",
"#m c #4c3624",
"#n c #6c4634",
"#o c #2c1e14",
"#p c #a47254",
"#q c #8c664c",
"#r c #a47e64",
"#s c #74523c",
"#t c #845a44",
"#u c #1c160c",
"#v c #946a54",
"#w c #442e24",
"#x c #bc967c",
"#y c #ccaa8c",
"#z c #ac7e64",
"#A c #9c6a4c",
"#B c #14120c",
"#C c #744e3c",
"#D c #34221c",
"#E c #ac7a54",
"#F c #7c523c",
"#G c #9c7254",
"#H c #644e3c",
"#I c #5c3e2c",
"#J c #6c4a34",
"#K c #cc9a7c",
"#L c #845e44",
"#M c #cc9674",
"#N c #946e54",
"#O c #7c563c",
"#P c #7c5a44",
"#Q c #94664c",
"#R c #64462c",
"#S c #8c624c",
"#T c #543a2c",
"#U c #8c5e44",
"#V c #b48a74",
/* pixels */
"................................................................................................................................",
"................................................................................................................................",
"................................................................................................................................",
"................................................................................................................................",
"................................................................................................................................",
"................................................................................................................................",
"....................................................................................................#u.u.7.P.n..................",
"............................................................................................#l#a.#.U#v#P.j.e#I#l................",
".......................................................................................Y.M.c.V#N#L.k#O.j.C#F#..x................",
"..............................................................................#l#D#H.U#N.q#U.6.k#F.k#O#s#O.F#.#u................",
".........................................................................x#m#J.Z#A.h#U#b#O.k#F#F.j#O.C.z.6.z.m##................",
"..................................................................#o.m.k#f#A.o#Q.k#U#O#O#O.C.j.W#t.h.6.F#O#O#n#u................",
"...........................................................Q#a.J.t.L.g.o.w#U#O.3.C#O.F.k#b#Q#q#Q.o#t#L.z#t.6.J.A................",
".....................................................Y.b.D.w.g.w.w.8.D.k#s.F.F#L.k#Q#N.o#q.Z.1.q#L#q#t.z#L.k#J#o................",
"............................................#l#g#I.C#h#h#b#h.d.k.C.k.j#h.8#S.9#S#G#f.o.o#q#q#b#S.o.6#t.j#U#L.z.A................",
".......................................n.2#..F.F.3.C.k.3.C.F.z.C#U.8#A#p#p#Q.o#f.9#p#v#f.o.o#q#b#L#b.k#J#b#b.C.p................",
"...................................P#.#R.e#n.z.z.z.z.z.j#O.W#A#f.t#A.o#f#A.o.o.L#f.Z#Q#q#b#b#S#b.q#t#L.j#S#q.z#w................",
"................................#g#I#.#O#J.R#J.J.z.k.C.D.w.d.t.t.w#A.8.o.o.I#Q.1#L#b#Q#L#b#L#t.q#t#L#U.z#b#N#R.p................",
".................................A#I#..o#z#O.R#O.F.k.k#h#L.8.w.w#A#f#U.8#A#f.g#P#b#Q.h#Q#b.h.8#L.k.k#t#J#b#p#s#d................",
"................................#g#.#.#G#e#h.z#F.F.j.D.k.D.8#A.8.w.8#U.8.o#A.8#f.o#Q#L.d#L#O#L.k#U.h#L.e#b#i#O#I................",
".................................P#..R#q.l#U#J.R#F.z#O.k.k.d.w#U.w#U.h.8#b#t.d.o.d.W.8#s#L#t.k.6.6#O#t.j#S#r#F#.................",
".................................p#.#.#p#M#b.J.j.z.k.C#F.d#h.8.d#b.W.d#U#U.W#O#O#t#O#L#t#O#b.k#L#U#t.W.z.W.H.k#I................",
".................................p#I#n.Z.S.k#J.z.z.F#O.F#h.k#h#U#b.C.8.d.W#U#O.k#O.k.k.k.k#s#O.k.j.k#O#F#U.r.8.m.G..............",
".................................p#I#.#G.y#h.z#J.j.z.F.C.D#O.C#h.d.k.8.k#t#h#O.8.k#L.k#s.k.C.W.C.k#O.k.z.6#K#L#R.Q..............",
".................................p#R#R.1.y#O.e.F#n.z.z.3#F.F.k#O#b.k#h#O#h#L.W#O#h.k#O#O#O.k#O.k#F.k.k#C.6.K#S#R.n..............",
".................................7.m#n#p.r.C.z#R.F.3.F#F.j.z.C.C.D.C.W#F.k.C#h#F#L.z#s#h#s.z#O#F#O#O.k.z#t#c#G#n#u..............",
"................................#I#.#.#G.X.z#R#n.z#C.F.z.z.F.j.F.k.j.C.F#s#F.k#O.F#s.F.z#O.k.k#O.k#O#U#R.k#y#G#R##..............",
"................................#d#I#J.9.E#O.e#J#n.R#J.z.z#C.z.F#O.z.j#F.j.F.z#O.z.k.k#s.F#O.z.j.z.C#O.z#O#c.4#n.Y..............",
"................................#d#I.m#E.K.J.R.e#J.J#J.z.F.F#J.z.C.z.z.F#F#F#n#J.3.C.z.k#F#J#O#F.3.6.k#F#F.s#z.z.A..............",
"................................#I#I.e.i#k.z.m#.#J.z.j#J.z.F#n.z.k.z.z#s.j.F.z.j#O.J#s.z.3#O.F#O.z#O#F.j.z.X.a.z#o..............",
"...............................5#I#d#R#z#M.j#n.z#R.R#n.R.z.j#J.j.F.z.z.z.j#F.3.k#J#J.j#n.z#O.z.F#O#F.k.z.z#j#e#J#g..............",
"...............................Q#I#T.e#j#j#J#.#R#n#..e#J#R.F#J.z#F.z.J.z.z.z.3#J#R.k.z#O.z.z#F.j#F.F.z.z#J#r.a.z.p..............",
"...............................Q#I#I#..0.r.R#.#I#R#R#n#R#.#J.e.z.z.z#J.z#J.z#F#J.z.C.z.F.F#F.3.z#F.3.6#F#J.T.a#O.p..............",
"...............................Q.O.m.R#x.y#J#.#n#R.R#n#.#R#n#..R#J.z.R#J#J.J#n.F.z.R.j#R.z.F#J.z#O#O.z#F.j#N#e#J#a..............",
"...............................G#I#I#R.f.y#n#.#R#.#J#.#J#.#n#R#R.F#J.e#n.R.z.m.z.z#n#J#J.z#J.F#F#J.z#O.z#.#q#e.z#d..............",
"...............................n#I#d.e.r#e.e.m#I#.#I#R#J#.#.#R#..z.z#R#J.e.z#J#.#J.z#J.C.z#s.F#J.C.j.z#J.e#S.B#O#I..............",
"...............................n#I#I#R.r.v#R.e.e.m#..e#.#R#.#n#J.J.z.m.e#J.R.z.z#J.F#R#J.R.J#J.3.z.z.C#s.e.q.4#s#I..............",
"..............................#u#d#d#n.H.T#R#.#I#.#R#I.m#J#R#J#R.R#J#.#R#R#J.j.z#J#R.J.e#J#J.z#J.j.z#J.F#J#t.4#J#d..............",
"...............................n#I.e#R#V#A#R#..O#.#n#R#.#n.e.z#..J#J.e#n#J.J#J.J.R#R#J.3.z.C.z#R#J.z.j.z#J#O#G.j#I.Q............",
"...............................Y#I#d#J.r#q#R#..m#R#.#J#.#..R#J#n#J.e#J.z.z.z.J#J.F#F.F.z.F.j.z.C.j#F#O.C.R#s#q.k#..Q............",
"...............................A.7.m.e#F#J#n#J#J#J.z#J.z.z#J.z.R.j.J.J.F.z.F.j.z.j#F.j.C#O#F.F#F.3.F#F.F#J.z#q#J#T.n............",
"..............................#o#T.7#d#I#I.m.O#.#..m#.#I#I#.#.#.#.#R#R#R#R#R#R#n.e#J#J#n.z#R.e#J#J#n.j.z.F#s#L#s#R#u............",
"...............................5.p#m.b#m.b.b.b.b.p.b.b#m#m#m.7.b#T.7.7#T.7.7#T#d.O#d#I#I#d#I.O#I.m#I#I.O#d#.#.#I.7.G............",
"...................................Q.5.5.Q.5.5.Q#B.n.n.n.n.n.n.n.n#B.Y.N.Y#o.Y.Y.N.Y.Y.N.A#g#g.A.2.A#g#g.2#g#m.2#B..............",
"................................................................................................................................",
"................................................................................................................................",
"................................................................................................................................",
"................................................................................................................................"
};
SIMPLE  =                    T                                                  BITPIX  =                    8                                                  NAXIS   =                    2                                                  NAXIS1  =                   64                                                  NAXIS2  =                   48                                                  HISTORY Written by XV 3.10a                                                     END                                                                                                                                                                                                                                                                                                                                                                                                                                                                                                                                                                                                                                                                                                                                                                                                                                                                                                                                                                                                                                                                                                                                                                                                                                                                                                                                                                                                                                                                                                                                                                                                                                                                                                                                                                                                                                                                                                                                                                                                                                                                                                                                                                                                                                                                                                                                                                                                                                                                                                                                                                                                                                                                                                                                                                             	 '((((''***9,                      
2;7:8:79476;;;<:?<=><=@>B@DD?EBDHFGBBGIE=                     !@<@CFGDHGHJFFJIHILMMMLNPNSRNWONRPOXXZZhXK                     %?FN]SLRSSTTSVSXQXUS[W\ZV[]Z`^[[]^[\[RVoVA                     F?QôoNFJKKRKJPROSPRWWTUR[[ZW[ZVaY\`aQYobJ                     BMNïuLLBHOKGPNVHTQNPRTSRPNP]X_VNQWWUS^{YE                     ??PïÅNHGHMCGQLRNQQJMMQYWPLSPQRTSYVS[Sd}S=                     DGMõàMLPIGOJOJOPTVIOQQXSR\MPSST\WW`YNiYF                      C?NõåOHDJFNOJILKVWKOOVQLSTRaVY\T^XXTNlÖaE                      FFLßóQJJIQKPLNLNYTNORUHWTNTRWQ[[UX^XKpâW>                      
DHPûóPJONOMLKOIPSUPRSUOYYQZJU[SX^_U[ZväQ6                      
CCKåõPKCMMPLLSMVXWTUPU\RX^X^]]^W\\b\RÅê^4                      
EBNìîQINOINPKZPW\UTXWX]SMcU^UT[Y\\WXPÜêY2                      	E@Kâ£ZPWMQPRW[QX]VVXY[_bQRZQU_XY_]bUWïåP(                       BGNÜ©UIHRWWSW\OXaXUYZ\UY^UXX]_]]Y^[]W°éU$                       ACHÜ™TQNSRTU\ZSW^WW[]\OS^aWcZU]\]bcY\™ãV&                       AGPÇ®_LUOQRVWYW\_YY[X]V^VdbY[^U[Wa]Y^≤}P                       DIJy¢XMMVZ[VVZZ\bY`[[]caY[]X`cc^b`gOa≤}M                       ?HN~õ`UN[]][YXa`eae[c`i\fWZhYW_\_^cXe≥{M                       3KMyò_NZQUX]\Zcajcj_hfg^gd\_^b_d\ccVb´mN                       4EJ{ôhVSZV[`f`afmendei]pbheYdbf_e^`Y`¶gK                       2FOx£eRUU\`]ffgijbrlei]d_cbebY_dYd_\hùoH                       3JG£lRYXb^^lhpnmfmike`\d]ge]jefidfVfñdE                       .KPoôjSS[X]ecnsjsinolenrohm\fdbcb^eYlà[H                        'KI{ãhW[ZZeegoxovpgrttrwrphnfafchmhNj}^G                        'GIuÜ_Q^\ebhhqtuwwirsx|elpnpmmphdcdTm~[?                        &GI^SOSSYb`gqoyyvwostzqvijrgkhcibgiUjuM2                        0IMOPWWUXWY_fvxzvryuvsÇvvoqkimmidfYlpU4                           +J][_bb^`[Waipx~|qsyÉ|uwuunkhkaTkkb5                              *G`jinilfbbZgrmozxuronklqbc[ghT&                                  8hq}tuofbZ\ZfdqurnvxjgpdVhcO#                                     6U{Å~srh`]`^]dkqpotddXdaT&                                        !Jdyusrei_^__Zecmb[``N                                            :Wtunii`b\\[_`UaWG                                               )Rt{ij`e]c^Y_[K                                                   Nxâvge`W`\J                                                      8_tsbZOE                                                          =?1                                                                                                                                                                                                                                                                                                                                                                                                                                                                                                                                                                                                                                                                                                                                                                                                                                                                                                                                                                                                                                                                                                                                                                                                                                                                                                                                                                                                                                                                                                                                                                                                                                                                                                                                                                                                                                                                                                                                                                                                                                                                                                                                                                                                                                                                                                                                                                                                                                                                                                                                                                                                                                                                                                                                                                                                                                                                                                                                                                                                                                                                                                                                                                                                         