/* XPM */
static char *sync14-14[] = {
/* width height num_colors chars_per_pixel */
"    64    48      115            2",
/* colors */
".. c #040204",
".# c #8c725c",
".a c #4c3a2c",
".b c #c4a68c",
".c c #7c5234",
".d c #b48a6c",
".e c #846244",
".f c #342214",
".g c #a47254",
".h c #64422c",
".i c #e4c2a4",
".j c #946244",
".k c #1c120c",
".l c #dcae84",
".m c #7c5a3c",
".n c #a47e64",
".o c #6c4e34",
".p c #4c3224",
".q c #9c765c",
".r c #8c6a4c",
".s c #0c0a04",
".t c #5c3a24",
".u c #84624c",
".v c #442e1c",
".w c #744a34",
".x c #d49e74",
".y c #8c5e3c",
".z c #b48264",
".A c #9c6e4c",
".B c #6c4a2c",
".C c #cca284",
".D c #e4ba94",
".E c #d4a684",
".F c #946a4c",
".G c #cc9a7c",
".H c #845a3c",
".I c #84563c",
".J c #3c2a1c",
".K c #6c462c",
".L c #f4d6ac",
".M c #241a14",
".N c #744e34",
".O c #140a04",
".P c #544234",
".Q c #cca67c",
".R c #7c5634",
".S c #c48e6c",
".T c #8c623c",
".U c #3c261c",
".V c #f4caac",
".W c #c49a84",
".X c #dcb694",
".Y c #ac7e64",
".Z c #5c422c",
".0 c #8c624c",
".1 c #9c725c",
".2 c #845e3c",
".3 c #745234",
".4 c #0c0604",
".5 c #946e4c",
".6 c #543a24",
".7 c #b48e6c",
".8 c #34261c",
".9 c #a47654",
"#. c #64462c",
"## c #eccaac",
"#a c #946644",
"#b c #24160c",
"#c c #a48264",
"#d c #543624",
"#e c #9c7a5c",
"#f c #5c3e2c",
"#g c #443224",
"#h c #b48664",
"#i c #9c7254",
"#j c #c4926c",
"#k c #9c6a4c",
"#l c #140e0c",
"#m c #8c6644",
"#n c #040604",
"#o c #7c523c",
"#p c #ecc6a4",
"#q c #c49a7c",
"#r c #dcb28c",
"#s c #7c5a44",
"#t c #4c3624",
"#u c #8c6a54",
"#v c #5c3a2c",
"#w c #846654",
"#x c #8c5e44",
"#y c #9c6e54",
"#z c #bc9274",
"#A c #6c4a34",
"#B c #e4be9c",
"#C c #946a54",
"#D c #cc9e7c",
"#E c #845a44",
"#F c #ac7a5c",
"#G c #6c4634",
"#H c #2c1e14",
"#I c #744e3c",
"#J c #7c563c",
"#K c #8c6244",
"#L c #8c664c",
"#M c #845e44",
"#N c #74523c",
"#O c #946e54",
"#P c #543a2c",
"#Q c #b48e74",
"#R c #a4765c",
"#S c #644634",
"#T c #94664c",
"#U c #9c7a64",
"#V c #b4866c",
"#W c #ccaa8c",
/* pixels */
"................................................................................................................................",
"................................................................................................................................",
"................................................................................................................................",
"................................................................................................................................",
"................................................................................................................................",
"...........................O#n..................................................................................................",
".......................k.6#A#L#w.a.4............................................................................................",
"......................#g.h.N#o.2#C.d.#.P.s......................................................................................",
"......................#t.6#N#J.N.H.H.H#L.Y.u.a.s................................................................................",
"......................#g#v#J.H.2.I#J#J#M.2.H#x.F#N.J.s..........................................................................",
".....................s#d.h#J#J#o#J.3.N#o.H#K#M.H#J.R#E#..f.4....................................................................",
".....................4#d#.#J#K#x.y#J.H.R#J.c#J.I.H.H.H#J.I.H.Z.8.4..............................................................",
".....................4#t.h.m#M#J#o.H#o.H#o.R#o.I.c#J.c.c#o.I.N.c.c.Z.U#n........................................................",
"....................#l#t#f#E#m#x.2#x.c#J.H#o.c#J.R.H#N.c.3.3.N.c.c.c.3.c.6.f#n..................................................",
"....................#l.6.B#M#K#E.H.m.H#o.c#J.c.c.y.N.N.I.N.c.N#A#o.c.N.N.w.N.N#t.f#n............................................",
".....................k#f#A#L#K#K#M.I.c.H#J#J#J#o.I.N#J.3#J.w#N.c.N#o.N#A.o.B.w#A.w.N.6.8.4......................................",
".....................k#f#.#C#L#x#m#E#x.3.y.I#J#J.c.N.3.w.y.c.c.N#A.B#A.B.N.N#A.N.B#A.w.B#A.6.f..................................",
"....................#H.6.w#i#T#K#E#K#J.H#N.I.R.3#o.H#A.w.2#o.3.N.N.N#G.h.c#..N.h#A#A.N#A.K#.#..f................................",
"....................#H#f.3.q#T#m#k.2.H#x#J#J.I#o.y.I.3#o.c.c#o.N#A.N.N.h.N#S.K#G.B#A#A.K.N#N#N.J................................",
"....................#H.6.N#e#T.e#x#K.H#J.y.I#J.m.H#o.I.R#G.N.c.3.N.N.N#G.o.w.K.N#G.K#.#G#A#a.9.p................................",
".....................f.6#A.n#O#L#a.0#J.H.H#J.y.I#J.R.H.H#S.c.3.c.w.3.N.N#A.w.3#A.K#A.K#..N#T.z.6................................",
".....................U#f#N.d#T#L#K#K.H#a#o.m.I#J#o.H.c.H.N.I.I.3#A.N.N.I.B.N.K#A.B#G.Z.K.N#i.S.6................................",
".....................8#f.2#z.9#y#K#T.H#E#M.H.H#J.c#J.N#J.y#J.I.c.c.c.R.H.N#A#G#..h#.#A.K#N#Q.x#f................................",
".....................v.6#s#q#C.F.5#M.m.H#K.H.H.H.y#I.y.N.y.H.c#o.N#o#J.c.3#A.R.c.N.N#G#..N#W.G.6................................",
".....................v#f#M.W#i.5#L#k.H#T.m#x.H#J.y.H.y.N.j.c#o.3.N.c.3#G.c.w#A#A.w.K#A.w.c.X.l.B................................",
".....................p#f#L.C#i#C.A#L#M.H.H.H#N#J.y.2#o.c#J#J.c.3.N#o.c#G.3.3.N.K#A.N.N.K.N#r#r.N................................",
".....................p.K#L.C#i#y.F#K#o.H#a#E.y.I.N#o.N#J.c#o.N.c.N.c#o#A.w.N.N.N#A.B#S#A.3.Q#r.N................................",
"...................4#g.h#u#W#i#y.F#y.H#a#J.m#x.H#I.3#J.y#G#o.N.3.w.3.N.w.B#A#A#A.w.N#A.K.N#D.D#J................................",
"...................s.p#f.q.Q#O.g#i#K.H#M#E.2.H.H.H.H.y.H.N.3#A.c.N#o#A.R.N.N.w.B.3#..w#A.c#j#B.c................................",
"...................4#t.B.q.b#R#L.F#L.H#M#a.H#J.H#K.y.H#J.c.N#G.c#A.N.w.I#o.c.R#G#..N#A.K.N.S#p.y#n..............................",
"..................#l#t.K.n.W#L#i#k#m.I#K.H#J#M.I#J.c#o#J.y.N#A.c.N.N#A.R.N.c#G.c#o.K.N#A.N#h.L#o#l..............................",
"...................k.6#f#c#Q.9#T.F#M.H.m#E.H.H.R#I.w.3.w.y.N.N.N.c.w.o.w.B#A.w#A#A.N#..w#A.z##.H.s..............................",
"..................#l.6#S#V#V#L.F.e.0.H#M#x.2#J#J.w#J#J.N#J.3.N#o.o#A.N.K#S.K.c#..c.h.N#A.w#F##.T.O..............................",
"...................k.6.N.7#c#y.F#L#K.I.2.m.I#J#J#J.H#J.N.c.c#J.N.w#A.c#..N.w#A.N#A.N#..N.B.9.i.H#l..............................",
"...................M#d.Z#V.q.F.0#m#E#J#J#E#J.2#o.y.c.c#o#S.c.R.3#A.N.c#S.c.3#G.w#A#G.K#G.B.g#B.j#b..............................",
"...................M.6#S#c.1#L.A#K#K#E.H.m.I.H.H.H.N.N#J.c.3.y.N.w.N.R.w.N#o.R#A.3.w.o#A.w.A.V#m.M..............................",
"..................#H.t#A.Y#O.A#M.0#J.T#x.H.H#J.I.o.I#J.I.N#o.H.N.N#A#J.N.N.B#G.c.K#A#..K.B#k.D#K#b..............................",
"...................f#P.o#U.r#M.F#M.H#N#J.I#J.c#o#G.R.H.R.H.c.y.N.w#A.c.c.N#G#..w.o.K.w#A#A#T#r#a.M..............................",
"...................8#f.N.n#K.F#x#M.H.I#E#x#N.H.3#J.N#o.N.I.c.H.3.N.N#A.N#A.B.o.K#A.K.h#.#G#a.E.F#H..............................",
"...................J#f.o#R#m#s#x.m#J.H#J.H#J.I.c.I.c#J.N.H.3#o.c.N.N.c#A.c.c.N.w.K.o#G#..K#a.G.A.8..............................",
"...................U.6#J.1#T#K#K#M.I.2.H.y.H.H.H.H.I#J.c.3.I.c#J.c.N.I#J#J.H#J.H.H.I.H#o#N.H#L#M.U..............................",
"...................J#f#o.r#M#J#J.H.H#x#J#J#o#J.I#N.c.N.N.N.N.N.N.w#A.N.N.B.w#A.K#S.B#A.B.B.w.B.h.U..............................",
"...................f#g.Z#.#G#.#G#.#G#.#G.B#.#A#.#.#f#..h#f.h.h.Z#f.Z#f#f#f#f#f.6#f#d#P#f#t#P#d.p#l..............................",
".....................f.v.p.p.J.J.J.J.8.J.U.v#H#H#H#H#H#H#H#H.M#b.k.k.k.k.k.k#l.k.O.s.O.4.s.s.s..................................",
"................................................................................................................................",
"................................................................................................................................",
"................................................................................................................................",
"................................................................................................................................"
};
SIMPLE  =                    T                                                  BITPIX  =                    8                                                  NAXIS   =                    2                                                  NAXIS1  =                   64                                                  NAXIS2  =                   48                                                  HISTORY Written by XV 3.10a                                                     END                                                                                                                                                                                                                                                                                                                                                                                                                                                                                                                                                                                                                                                                                                                                                                                                                                                                                                                                                                                                                                                                                                                                                                                                                                                                                                                                                                                                                                                                                                                                                                                                                                                                                                                                                                                                                                                                                                                                                                                                                                                                                                                                                                                                                                                                                                                                                                                                                                                                                                                                                                                                                                                                                                                                                                      $397-,-/)/+/"!   


	
	                         '6GLPKONOKOONRKLGLJFIIIFFFEEFABD=BD=A<8                        .E]pf^abbh_`\``Z\WVYVXUSRUVQTSRNRQPOTPL,                        ,A\}pljhadchdadda`Y[`[^[Y`__a]acab\\aqf*                        +FSmchb^c`c`a\aY_VcY\ZYXYRY[WUOSOMOn¥w+                        +FU†jshecaeh[cY^U]X_[cZVUSWSRSNROILPp²t                        &@U‚qgsgeZ]a\\\R^c^`]hUVRZ]VPKUTOTQRo¼p                        BR‰wvej`ijce__U^_aY[dXTR^UVQQ[OQMOPwÂo                        @MŠ}pxlledbaebcWY^XYdZSW^TVZ]SYSTRS{Îo                        <J€smmc]_c^g]g]Z\P]\YQV[O[[NTQOOOP}Çm                        @U•‰xromaecb^_^c`XZ[]XRRZMTSSVSVMTT~Èe                        ?M’qrilbhhf_\U^^T]ZWZURWNMP[NYMWQS†Òj                        >F‰—€rshbbdae^XU[UiVWW\STSRQSRQWKSRŒÑe                        ;Mˆ¤mzumajcae`aZ[`dXRYXWQ\YZPZ\PVRW‘Ø^                        :P€ªouodgne_blfb_\XQ[RXSa\[^PLWPPX™Íh                        
9D~¯v~zlbfedbdedffVZQYWZS^UXSSWNSRYœÅY                         5Hs°}ytzcn`cjbWZ^fP\VZTZXTRRRRTUSNY¦Ãa                         8Op¬zwsl]dncfbV]V`X_X[V[ZRTWSXROLSY¬ºW                          7Dn«ztyngaeeZ`ef\[_^ZZU[^MXXXMSWWNV¹ºY                          5Fe¦{unudpafb`idgYl]\ZU\YR[VSRSOQT\¼µS                          1@c¢vqviadlbecfZeXja[]V\aZZP^YUXPNT³¢C                          ,Cfœ€wlrcefcb`[^V^e_aZZ\]bWSOMJJRNZš¨G                          +A\’qpmjbq]a``[d[eW`bYTVW`PVOPRPINX{š?                          )?S…uool_bd`ga`^dbN\WZUYWYRSYSNPOKVpB                          AUqiilb_ga_bc]`^OW\ZTVUPTTPUONKNSr7                           EX~qptfdia]`\faY\[]\XSWVIWMMPRRROTZZ-                          BR~pkcl_aYb^Y\bSSf]ZXTXQIYNVJSQUSNML'                          ELtoinef\fb]aZXYUgZZWROQSVUTTQRSQSA%                          BSoljhb[c`__\`V]Y`TZ\VZXPUQSSSY@)                             >Oijdbbe]Y^]ZfZXaU[XR\[WWTWU<&                                :Gbnhih\^d\[_^b[\YYW\[ZY\B$                                   9Gbg`\c[c^]^_\^\[]aXZ^H*                                      	>O_jig`c]^\^_cbb]acI)                                         
;K]^\_XW]fjhd_]fM(                                            5C]dea__ggdguZ1                                                ;BX`Wbadqˆj?
                                                   3IV]ft–vE                                                      APpm>	                                                                                                                                                                                                                                                                                                                                                                                                                                                                                                                                                                                                                                                                                                                                                                                                                                                                                                                                                                                                                                                                                                                                                                                                                                                                                                                                                                                                                                                                                                                                                                                                                                                                                                                                                                                                                                                                                                                                                                                                                                                                                                                                                                                                                                                                                                                                                                                                                                                                                                                                                                                                                                                                                                                                                                                                                                                                                                                                                                                                                                                                                                                                                                                                                                           