/* XPM */
static char *sync11-11[] = {
/* width height num_colors chars_per_pixel */
"    64    48       81            2",
/* colors */
".. c #040204",
".# c #7c6244",
".a c #443224",
".b c #6c462c",
".c c #bc9274",
".d c #241a14",
".e c #74563c",
".f c #946a4c",
".g c #5c3a24",
".h c #1c120c",
".i c #6c4e34",
".j c #3c261c",
".k c #845a3c",
".l c #8c6244",
".m c #d4ae8c",
".n c #140e0c",
".o c #5c422c",
".p c #543624",
".q c #342214",
".r c #7c5234",
".s c #8c5e3c",
".t c #8c6a4c",
".u c #140a04",
".v c #744a34",
".w c #cca684",
".x c #ac7e64",
".y c #9c725c",
".z c #442e1c",
".A c #b48e74",
".B c #845e4c",
".C c #0c0a04",
".D c #6c4a2c",
".E c #a48264",
".F c #7c563c",
".G c #24160c",
".H c #744e34",
".I c #b48664",
".J c #845e3c",
".K c #8c6644",
".L c #dcba9c",
".M c #64422c",
".N c #0c0604",
".O c #846244",
".P c #4c3224",
".Q c #c49a7c",
".R c #a47e64",
".S c #2c1a14",
".T c #946e54",
".U c #5c3e2c",
".V c #543a24",
".W c #34261c",
".X c #7c5a3c",
".Y c #745234",
".Z c #64462c",
".0 c #040604",
".1 c #6c4634",
".2 c #c4967c",
".3 c #9c7a64",
".4 c #946a54",
".5 c #5c3a2c",
".6 c #1c160c",
".7 c #3c2a1c",
".8 c #845a44",
".9 c #8c624c",
"#. c #dcae8c",
"## c #14120c",
"#a c #7c523c",
"#b c #9c765c",
"#c c #442e24",
"#d c #6c4a34",
"#e c #b48a6c",
"#f c #845e44",
"#g c #8c664c",
"#h c #e4ba9c",
"#i c #84624c",
"#j c #4c3624",
"#k c #2c1e14",
"#l c #543a2c",
"#m c #7c5a44",
"#n c #74523c",
"#o c #644634",
/* pixels */
"................................................................................................................................",
"................................................................................................................................",
".......................................................C.n......................................................................",
"...................................................C#c.V.o#k....................................................................",
"..................................................#k.p.b#d.H.C..................................................................",
"..................................................#k#j#d.H.v.7..................................................................",
"...................................................j.p#d.H.D.5.C................................................................",
"...................................................a.P#d.r#d.U.7................................................................",
"...................................................7.P.Z.H.H.Z.v.C..............................................................",
"...................................................P#j#d#a.H.Z.D.j..............................................................",
"...................................................7.p.D.i.H#d.v.o..............................................................",
"...................................................z.p.H#n.r#d.b.b#k............................................................",
"...................................................P#j#a.X#a.M#o.Z.U.0..........................................................",
"...................................................P.p.Y.8.r.U#d.M.M.q..........................................................",
"...................................................z#l.Y.F.k.M.b#o.M.U..........................................................",
"...................................................7.p#a#f.F.1.Z.b.U.U.q........................................................",
"...................................................7#j.8.4.r.r.M.o.U.U.V........................................................",
".................................................N#c.p.F.t#n.b.o.U.M.M.g.6......................................................",
".................................................N.7.5.F#b.F.M.M.U.M.o.M.P......................................................",
".................................................C.z.V#m#b.F.Z.U.V.U#o#d.M.C....................................................",
".................................................N.P#l#f.I.F.1.V.p#j.Z.f.F.C....................................................",
".................................................C.P.V.l.2.k.H.U.P.p.Z.T.k.n....................................................",
".................................................N.z#l#f.Q.k.H.o.P.V.1.4.F.C....................................................",
".................................................C.P.U.9.w.J#d.M.p.V.M#b.F.u....................................................",
".................................................N.P.V#g.m.8.b#d.p#l.1#b.F.n....................................................",
".................................................C.P#l.4#h.k.1.o.U.V.M.R.k.C....................................................",
".................................................N.z.V.4.L.F.M.M.V.U.D.R#f.n....................................................",
".................................................C.z.U.4#..F.b.M.U.U.M.I.K.u....................................................",
".................................................h#c.U.t.w.k#d.U.V.P.i#e.l.u....................................................",
".................................................h.a.U.4.Q.k.H.M.V.P.M#e.l.n....................................................",
".................................................h.z.U#i.A.s.H.U.p.U#d.c#f.n....................................................",
".................................................h.z.U#g#e.k.b.o.p.V#d.c#f.n....................................................",
"................................................##.z.U#g.I.k.M.M#l.V.M.Q#f.d....................................................",
".................................................n.P.M#i.R.k.o.U.V#l.Z.A#f.d....................................................",
".................................................h.a.U#f.y.r.U.5.U.g.U.E.#.G....................................................",
".................................................h.P.U.8.#.H.Z.V.U.V#o.E.8.G....................................................",
".................................................h.P.M.8.O#o#d.V.U.V.M.E#g#k....................................................",
".................................................n.z.U.e.B.M.M.U.p.U.Z.3.4.G....................................................",
".................................................d.z.U.e.X.1.U.M.V.V.M.x.f.G....................................................",
"................................................#k.7.M#m.F.b.U.Z#l.p.Z#b#g.d....................................................",
".................................................G#c.M.H#n.1.M#d.b#d#o#o.Z.S....................................................",
"................................................#k.z.U.i.i.Z.M.b.o.V.V.P.p.6....................................................",
".................................................n.7.P.5.U#l.V.V.P.P.P.P.7.N....................................................",
"..................................................#k.z.P.z.z.W.S.6.h.C.0........................................................",
".......................................................N........................................................................",
"................................................................................................................................",
"................................................................................................................................",
"................................................................................................................................"
};
SIMPLE  =                    T                                                  BITPIX  =                    8                                                  NAXIS   =                    2                                                  NAXIS1  =                   64                                                  NAXIS2  =                   48                                                  HISTORY Written by XV 3.10a                                                     END                                                                                                                                                                                                                                                                                                                                                                                                                                                                                                                                                                                                                                                                                                                                                                                                                                                                                                                                                                                                                                                                                                                                                                                                                                                                                                                                                                                                                                                                                                                                                                                                                                                                                                                                                                                                                                                                                                                                                                                                                                                                                                                                                                                                                                                                                                                                                                                                                                                                                                                                                                                                                                                                                                                                                                                    "2542(	                                                    ,:AFA??8878-                                                   5CUTMJMG@?:<                                                  5GYZNITNQNNL                                                  !/I``OGLA<Jp                                                  5F[aMEH@?Jàs                                                  2E[hKIC=ELÉs                                                  :GeiMR?EBJàn!                                                  6HcfVLBD=Làe                                                  6Ef}]FBEBFåb                                                  6FjÜaGFB?Kñi                                                  6FoécIH?>L°f                                                  1BnìcOG<BN°g                                                  5FjñgWG;ERöe                                                  5Ep•fTIA9Gïi                                                  3FrÆcQF@9Tïl                                                  1Eu∑aOJCDJèm                                                  3?sø`HJACPáf                                                  
6Bs√cQIB@Hàf                                                  	8Bp∂bPP>@N~^                                                  7ElÆeTH>BL}`                                                  	4?g¢dUH:=Ou^                                                  
6@lüdTD9=Lud                                                  	7@dè^OB<=Kt]                                                  	1@bÄ_MD?DLSH                                                  1A^~]IJDKIH8                                                   3=`q\NHBJHC                                                    .;dt][JHFD>                                                    1>\g^OLNFF'                                                     5?Y`bJQLJE                                                     8<Zd[CQJL$                                                      8:\a\KLLE                                                      3>VY\QON$                                                       1;PTZPSF                                                       6;P\UMP-                                                        0:NUWNS                                                        69QZRD-                                                         +=QWRC                                                         "<PUR0                                                          "=NSS                                                          3@H&                                                                                                                                                                                                                                                                                                                                                                                                                                                                                                                                                                                                                                                                                                                                                                                                                                                                                                                                                                                                                                                                                                                                                                                                                                                                                                                                                                                                                                                                                                                                                                                                                                                                                                                                                                                                                                                                                                                                                                                                                                                                                                                                                                                                                                                                                                                                                                                                                                                                                                                                                                                                                                                                                                                                                                                                                                                                                                                                                                                                                               