/* XPM */
static char *sync9-9[] = {
/* width height num_colors chars_per_pixel */
"    64    48       75            2",
/* colors */
".. c #040204",
".# c #443224",
".a c #6c462c",
".b c #ac8a6c",
".c c #241a14",
".d c #94725c",
".e c #6c523c",
".f c #5c422c",
".g c #8c6a54",
".h c #3c261c",
".i c #7c523c",
".j c #1c120c",
".k c #8c6244",
".l c #543624",
".m c #c4a284",
".n c #6c4e34",
".o c #7c5a3c",
".p c #0c0a04",
".q c #342214",
".r c #9c7a5c",
".s c #644a3c",
".t c #5c3e2c",
".u c #845e44",
".v c #bc967c",
".w c #64422c",
".x c #442e1c",
".y c #5c3a24",
".z c #745234",
".A c #946a4c",
".B c #24160c",
".C c #8c6654",
".D c #dcb29c",
".E c #744e34",
".F c #845a3c",
".G c #846244",
".H c #0c0604",
".I c #4c3224",
".J c #6c4a34",
".K c #2c1a14",
".L c #442a1c",
".M c #7c563c",
".N c #8c664c",
".O c #543a24",
".P c #140a04",
".Q c #34261c",
".R c #c49e84",
".S c #64462c",
".T c #745644",
".U c #040604",
".V c #6c4634",
".W c #9c725c",
".X c #5c4234",
".Y c #8c6e54",
".Z c #3c2a1c",
".0 c #1c160c",
".1 c #8c624c",
".2 c #ccaa94",
".3 c #7c5a44",
".4 c #9c7a64",
".5 c #845e4c",
".6 c #c4967c",
".7 c #442e24",
".8 c #5c3a2c",
".9 c #74523c",
"#. c #946e54",
"## c #744e3c",
"#a c #845a44",
"#b c #a47e64",
"#c c #84624c",
"#d c #4c3624",
"#e c #2c1e14",
"#f c #7c5644",
"#g c #543a2c",
"#h c #140e0c",
"#i c #644634",
/* pixels */
"................................................................................................................................",
"................................................................................................................................",
"...............................................................................p................................................",
"...........................................................................p.f.l#d#h............................................",
"...........................................................................I#g.S.a.y............................................",
"........................................................................#e#d.t.V.t.S............................................",
".......................................................................0.x.I.w.J.f.a............................................",
".....................................................................p.I.7.x.a.J.w.V.p..........................................",
".....................................................................L.x.x.I.J.E.S.w.p..........................................",
"...................................................................Q.I.x.7.O.a.n.w.S.P..........................................",
".................................................................j.O.I.#.l#d.V.E.V.n.P..........................................",
"...............................................................p.S.O.x.I.l.#.w.E.J.i.p..........................................",
"...............................................................l.8.x#g.f.l.x.f.i#i.J#h..........................................",
".............................................................Z.w#d.I.w.O.O.I.w.n.n.E#h..........................................",
"..........................................................#h.w.O.7.f.w.O#d.l.w.F#f.E.c..........................................",
".........................................................U.O.O.I.w.S.a.l.7.#.t#a.M.E.c..........................................",
".........................................................Z.O.I#d.a.V#g#d.l.I.w.o.3.J.K..........................................",
".......................................................B.l#d.l.w.w.J.t.t.I#d.w.k.1.E.c..........................................",
".....................................................U.l#d.l.J.8.f.S.t.x.x.#.a.N.N.F#e..........................................",
".....................................................p#g#..n.w.t.t.t.t.I.I.#.w.A.W.F.B..........................................",
".....................................................p.t.4.F.f.w.t.w.O.l.I.x.J.A#b.F.c..........................................",
".....................................................P.S.4.9.a.f.t.l.I.Z.Z.I.a.A.b.F.Q..........................................",
".....................................................0.J.r.9.S.a.O.O#d.I.I.I.a.g.6.i.x..........................................",
".....................................................B.t.d.M.t.w#g.O.I.l#d#d.w.N.m.9.h..........................................",
".....................................................j.t#..E.8.t.t.l.O.x.x.x.w.1.2.F.Q..........................................",
".....................................................B.O.C.n.O.O.O.t.I.L.Z.x.t#c.D#a.x..........................................",
".....................................................j.t#c.n.t.O.l.O#d.I.#.I.t.N.2.F.Z..........................................",
".....................................................0.O.5.E.t#g.O.l.l.I.I.I.f.k.R#a.x..........................................",
".....................................................0.t.T.J.t.O.l.#.7.#.x.I.a.G.v.o.I..........................................",
".....................................................0.l.e.S.t.I#d.I.I.I.x.x.S#a.b#a.O..........................................",
".....................................................j#g.s.S.I.I.l.Z.x.Z.L.7.f.3#b.M#d..........................................",
".....................................................j.t#i.J#d.l#d.Z.I.x.I.I.8.F.4.i.I..........................................",
".....................................................0.O#i.t.O.I.I.l.#.x.x#d.w.M.Y.n.l..........................................",
".....................................................j.O.w.t.t#d.I.I.I.7.7.x.w##.g.9#d..........................................",
".....................................................j.l.X.t.y.x.I#d.x.h.x.Z.f.E.C.M.O..........................................",
".....................................................0.#.t.f#d#d.I.#.x.Z.x.I.w.J.u.J.t..........................................",
"....................................................#e.I#g.t.I.l.x.x.I.x.7.x.8.J.3.J.f..........................................",
".....................................................c#d#g.y.I.#.x.h.I.h.7.x.O#i.3.S.w..........................................",
"....................................................#e.l.t.t.I.x.Z.Z.I.#.Z.I.l#i.M.J.O..........................................",
".....................................................K.O.t.O#d.x.Z.I.I.I.x.h.O.J#f.z.t..........................................",
".....................................................c.I.O.l#d.I#d.I.Z.Z.Z.7.t.a.n#i.f..........................................",
"....................................................#e.x.I.I.Z.I.x.h.I.Z.x.x.O.J.s.V.y..........................................",
".....................................................H.Z.x.x.x.L.x.Z.#.h.Z.L.x.O.l.f.#..........................................",
".........................................................U.H#h.j.0.K.c.q.Q.Z.L.Z.Z.h.P..........................................",
".................................................................................p..............................................",
"................................................................................................................................",
"................................................................................................................................",
"................................................................................................................................"
};
SIMPLE  =                    T                                                  BITPIX  =                    8                                                  NAXIS   =                    2                                                  NAXIS1  =                   64                                                  NAXIS2  =                   48                                                  HISTORY Written by XV 3.10a                                                     END                                                                                                                                                                                                                                                                                                                                                                                                                                                                                                                                                                                                                                                                                                                                                                                                                                                                                                                                                                                                                                                                                                                                                                                                                                                                                                                                                                                                                                                                                                                                                                                                                                                                                                                                                                                                                                                                                                                                                                                                                                                                                                                                                                                                                                                                                                                                                                                                                                                                                                                                                                                                                                                                                                                                    	                                                   $'00,.+                                               -31221/5,/12?=G5                                                578043-5-21AOPOD                                               6C=::961/.3CPULH                                               >C?9306864,@P^XD                                               ">DE92./86/6?N_QB                                               9CA952-6-23=OaLL                                               "4DC8<436513CQbRF                                               7FF;<760115ISeRG                                               =GFA4894+2/HWq_?                                               >KGE;786432HWrY=                                               @KCB69<663;K^tS=                                               BMQ;;:16189CaÉ^8                                               ?PL98</31/2HaÜ\<                                               ;WNF8<66621Mdìc@                                               D]OD?=55538Miüc9                                               @gXEB>=<869Hm¶e2                                               DiTE?=@:959Gl≤d0                                               BpUB>CD72-2Dlªd3                                               FvUCDD?>244Gm±`+                                               Fz^FHA>8;9;Hp©[,                                               QÅYLNB?<898Or°^0                                               KÇ[NHC>61-8Rqëb*                                               DÇcGJFG>=74Qràd                                               @uVKCFFE595Lrzc                                               =;<PCGME534Ompc                                                ?9=JKPCC8<JjmY                                                 />9<NOB9<7HcbQ                                                 C>9GNM>46Gd^W                                                  J?5GI?<>Ib^X                                                   /H:7IA=:HUUW                                                    >C4>G=2G[NQ                                                    K>57<6IWTY                                                     A66<9NYNU                                                      )835@NTLL                                                      1129TULJ                                                       741OQKN                                                        27JRHN                                                         #9EOFM                                                          7CKLB                                                           F>;                                                                                                                                                                                                                                                                                                                                                                                                                                                                                                                                                                                                                                                                                                                                                                                                                                                                                                                                                                                                                                                                                                                                                                                                                                                                                                                                                                                                                                                                                                                                                                                                                                                                                                                                                                                                                                                                                                                                                                                                                                                                                                                                                                                                                                                                                                                                                                                                                                                                                                                                                                                                                                                                                                                                                                                                                                                                                                                                                                                                                     