/* XPM */
static char *sync15-15[] = {
/* width height num_colors chars_per_pixel */
"    64    48      161            2",
/* colors */
".. c #040204",
".# c #8c6a4c",
".a c #c49e7c",
".b c #4c3624",
".c c #ac8664",
".d c #645244",
".e c #e4ba8c",
".f c #a46e4c",
".g c #2c1e14",
".h c #84563c",
".i c #d4ae94",
".j c #c48a64",
".k c #64422c",
".l c #947664",
".m c #a47a5c",
".n c #846244",
".o c #9c6a44",
".p c #d49e74",
".q c #1c120c",
".r c #bc9274",
".s c #442a1c",
".t c #b47e5c",
".u c #bc8e6c",
".v c #6c4a34",
".w c #e4baa4",
".x c #ac8264",
".y c #946244",
".z c #5c3e24",
".A c #b48e74",
".B c #745234",
".C c #3c2a1c",
".D c #f4c6a4",
".E c #d4a68c",
".F c #140e0c",
".G c #947254",
".H c #b48664",
".I c #845e3c",
".J c #e4b69c",
".K c #ac7a54",
".L c #7c5a3c",
".M c #946a44",
".N c #dcb694",
".O c #c49674",
".P c #8c623c",
".Q c #9c724c",
".R c #7c5234",
".S c #cca68c",
".T c #5c3a24",
".U c #ecc294",
".V c #a47654",
".W c #3c261c",
".X c #2c1a14",
".Y c #744a34",
".Z c #dca684",
".0 c #cc9e7c",
".1 c #34261c",
".2 c #dcae8c",
".3 c #6c462c",
".4 c #eccea4",
".5 c #241a14",
".6 c #443224",
".7 c #b48a74",
".8 c #946a54",
".9 c #8c624c",
"#. c #0c0a04",
"## c #543624",
"#a c #ecbe9c",
"#b c #342214",
"#c c #8c5a3c",
"#d c #c4926c",
"#e c #9c7654",
"#f c #a47e5c",
"#g c #9c6e54",
"#h c #24160c",
"#i c #e4c2ac",
"#j c #f4ceac",
"#k c #b48a64",
"#l c #8c5e3c",
"#m c #ac7e64",
"#n c #7c5634",
"#o c #0c0604",
"#p c #ac8a6c",
"#q c #e4be9c",
"#r c #a4724c",
"#s c #845a3c",
"#t c #64462c",
"#u c #ecc69c",
"#v c #9c6e4c",
"#w c #dca27c",
"#x c #bc9a84",
"#y c #442e1c",
"#z c #b4825c",
"#A c #6c4e34",
"#B c #946644",
"#C c #5c422c",
"#D c #d4aa84",
"#E c #ac7e5c",
"#F c #946e4c",
"#G c #cc9a74",
"#H c #8c6644",
"#I c #9c725c",
"#J c #744e34",
"#K c #cca28c",
"#L c #dcb294",
"#M c #543a24",
"#N c #9c7a5c",
"#O c #040604",
"#P c #c49e84",
"#Q c #ac866c",
"#R c #e4be94",
"#S c #2c2214",
"#T c #c48e6c",
"#U c #a47a64",
"#V c #9c6a4c",
"#W c #1c160c",
"#X c #bc967c",
"#Y c #b47e64",
"#Z c #ecc2a4",
"#0 c #ecceb4",
"#1 c #4c3224",
"#2 c #c49a7c",
"#3 c #cca284",
"#4 c #e4bea4",
"#5 c #14120c",
"#6 c #dcaa84",
"#7 c #946e54",
"#8 c #8c664c",
"#9 c #bc8e74",
"a. c #ac826c",
"a# c #5c3e2c",
"aa c #74523c",
"ab c #b4866c",
"ac c #845e44",
"ad c #ac7a5c",
"ae c #946a4c",
"af c #8c6244",
"ag c #9c7254",
"ah c #7c523c",
"ai c #140a0c",
"aj c #5c3a2c",
"ak c #ecc29c",
"al c #a4765c",
"am c #dcae94",
"an c #6c4634",
"ao c #34221c",
"ap c #c49274",
"aq c #9c765c",
"ar c #a47e64",
"as c #241614",
"at c #b48a6c",
"au c #8c5e44",
"av c #7c563c",
"aw c #a47254",
"ax c #845a44",
"ay c #644634",
"az c #6c4e3c",
"aA c #94664c",
"aB c #f4caac",
"aC c #d4aa8c",
"aD c #744e3c",
"aE c #543a2c",
/* pixels */
"................................................................................................................................",
"................................................................................................................................",
"................................................................................................................................",
"................................................................................................................................",
"................................................................................................................................",
"................................................................................................................................",
"................................................................................................................................",
"..................#h.baE.C#W....................................................................................................",
".................F.b.Y.Laeaeag.n.d.W#...........................................................................................",
".................5.z#Aauacauaf.y.Qad.u#p.l.d#S..................................................................................",
".................X#M.vac#B.nac#B#g.c#Eawaeaw.H.uae.d.C.F........................................................................",
"................ao##.Bacac.9afauav.I.9#Fag.mawaeae.o.f#v.y.v#y#W................................................................",
".................1.zaa.9#HaAaAae#cau#s#s.hav#saf#B#8aA#Hae#B.y#laf.Y###b#.......................................................",
".................WaEaxae.naAaeafavaxacafaf#savah.h#s.R#s#sac#lac#s#s#sav#s.h.z.C.q..............................................",
"................#y.k.L#7#g#v#8aA#saA.M.9#B#H#B.Lac#l#s#sah.Raa#J#nav#sah.h.I#Jav.h#n#C#1.g#.....................................",
".................C.kau#7#8#F.8#H#s#HaA#v#8.yae#B.o#V#B.y.I.B.h#sav.R.h#J.R#J#J.R.R#J.R.B.Y#n.v##.C.F............................",
"................#y.vaf#I#eag#gae#s.9ae#v#V#v#B#V#Baf.o.y.yau.y.o.y#Jav.v#Jav#J#J.B#J#J#J#J.R.Y.B#J.R#b..........................",
"..............#o.6.k#8.m#Ial.G#8auagae#HaeaeafaAaf.yafauafau#s.o#lav.R#s#s#l#Jah#J.Y#J#J#J.B#J#J#J.I.b..........................",
"..............#.#yay#7al#Eal.mae#sae#gaeaA.9#raf.y#Haxaf.P#B#s.oau.hah#l.h#s#sav#l.hav#J#J#J.k#J#2#z##..........................",
"..............#o#1.Y.G.x#N#f#maeaf.G.V#g.Qae#vaeaAae#s.y.y#V#s.oau.R#s.y#s.R#c.hah#n.hah#J.hav#s#u#Y#M..........................",
"...............q.b.vaqabab.x#N#gaA.V#g#7aw#vac#v#V#Vafaf.o#B#s#B#lav#l.P#s#s#s.h#n.h.R.R.h#J.R#l.D#d.k..........................",
"...............q#1#A.x.7at#Qab#7.9agal#F.8aeaAae#Haf#Vau#H.oau.y.Iah.y#s#s#sav#s.h#sav#n#J.Bah#s.D#G#A..........................",
"...............F##.B#Q#X.r.A.cae#H.m.mawae.#aw.9afaf#v#Bac.oau#B#s#s.y#sav#l.h#s#s.R.Rahav.R.B.h.U.p#J..........................",
"...............5#Maa.O#2#X#9.r#gaAaqaqalag#g#vae#8#B#Vafafafauaf#s.h#B#s.h#c#s#n.h.B.Rav.R.R.R#s.e.0.B..........................",
"...............5.Tav#P.S.a#2.A#g#F.m#E#Iag.V.8aeaAaeafafau.yaf.y#s#s#l#J#lah.R#cav#sah.h.RaD.R.h.Z#6ah..........................",
"..............as#Maa.S.2.E.a#2#7aga.#E.m#e#g.##v.##Bacau#safaf#l#sau#s#J#s.B.B#l.h#J.R.Bah.B#J#s#w.N#s#.........................",
"...............ga#ax.i.iaC#P.Oaeal#maq#Eaqaeal#vaA#8acafacavau.Iav.Iahah#s.hahav#n#s.h.Rav.R.B.h.0#u#nai........................",
"..............#ba#.L#q.Nam#K#P#8al.x.xaqal#7.Vae#8auacacauavaf.Iahaf#J.h#J#l#s#J.hav.R.B#J.R#J.R#Gak#s#.........................",
"..............#ba#ae#i.J.i.E.aafaq.Haralag.V.##V#8aA#Haf#Bav#lauav#l#J.IaD#s.h#s#s#J#J.h.h.Raa.h#T#aau.q........................",
"...............say#8#0#a#LaC.0aA.c#m#U#f.m#7#8ae#g#Hae.y#B.Lac#caa#lahaf.R.R.R#l.Rav.h.R.B#J#J.R.jak.y.5........................",
"...............C#C#7#i#L#L#K#3af#U.c.H.m#Iagagag#vaA.QafaA#sac#lavaf.h#l#laDah#J#s.B#Jah.Rah#Jav#z.4af#h........................",
"...............C.k#I#4.Nam#3#Xaf#U.x.maqaq.Vag#8#vaeaAaAaf.L#lavah.I#s#laf#n#s.v#n.hav#J#J#J.R.R.K#j#V.5........................",
"..............#1.3#N.waC.S#P.0#s#mar#U#E.V#7ae.9#8afacafauacaxav#J#lau#sav.h#n.h.v#n#Jah.Rah#J#J.taBae#b........................",
"............#.#1ay#m.i.2#P#2.7ax#f.x#falag#7#8ae.9aeavafauaf#sah#J#s#s.h.B.h.v#sah#J.R#J#J#Jah.R.K#Zaw.W........................",
"............#o#y#taraC#x#2.r.O#s#m.m#7#7aq#F#g#vaA#Vavaxacaf#sahaD.I#l#A.R.R#J.Rav#n.Rah.B#J.R.vaw#R#g.1........................",
".............F#1.va.#P.0.O#paracar.m#m.m#g#F#gae#8#H#8av#l.y#saa#Javah.vav.Rav#J.Rah#J#J#J.Y#A.Raw.e.m.W........................",
"............#5#1#t.c#X.A.A.7ar#s.maq.mag#g#8#8af#vac#B.Laxaf#s#JaDav.Rahav.Rah.R#s.v.R#J.Raa.R.v#B#Dal#1........................",
".............q#1#Ja..r.rat.xaq.h.maq#7ae#7ae#8acafaxaeafaa.PavaD.Bah.R#J.h#naD.B#J#J#J.B#J.Y#J#Jaf#G.m.b........................",
"............#5.b#t#m.7aratar.m.Lag.mag#7#g#vae#8axafac#B.haf#s#JaD.Raaavah.h.R.B.Y.B#J.Y.B.R.R.Rafap.m#M........................",
"............#h.Taz#N.x#Q#m#Nag#saA#8#Vafaf.9afaf#sac#sauavauav#Jah.R.h#s.Bah.Ravav#Javah.R#A.vanauap#k.b........................",
"............as.baa.m.xaq.maq.8aA#8#Baeaeacafau.Lau#sau.Iau#s#sauavav.R#s.y.h#s.y.h#n.h#sah#s.h.I#s.yag.k........................",
".............5#M.v.#ag#I#7.8.##I#e#I.##F#8ae#8afacaf.haf.h.hav#n.hav.R.R.v.B.h.B.R.R#J#J.Y#t.Y#J.B.Y.Ya#........................",
".............q.6a#an.v.v.v.v.v.3ay.v.k.v.3#t.3.v.3ay#C.v.kan#t.3a##t.k#ta#.z.ka#.ka#a##M#C###Maj.za##M#b........................",
"..............#h.W.C#y.C.C.C.1.C.W.W.g#b.g.g.g.g.g#S.X.g.g.g.5.q#h#W.F.q.q.q.q.q#W.q.q.q#.#.#.#.#o#.#O..........................",
"................................................................................................................................",
"................................................................................................................................",
"................................................................................................................................",
"................................................................................................................................"
};
SIMPLE  =                    T                                                  BITPIX  =                    8                                                  NAXIS   =                    2                                                  NAXIS1  =                   64                                                  NAXIS2  =                   48                                                  HISTORY Written by XV 3.10a                                                     END                                                                                                                                                                                                                                                                                                                                                                                                                                                                                                                                                                                                                                                                                                                                                                                                                                                                                                                                                                                                                                                                                                                                                                                                                                                                                                                                                                                                                                                                                                                                                                                                                                                                                                                                                                                                                                                                                                                                                                                                                                                                                                                                                                                                                                                                                                                                                                                                                                                                                                                                                                                                                                                                                                                                                                    *01..-(+,*!#" " "# !#		
		                   5FNQQQPRNNPJQNMOQOMHRJOLMHNHLFGGEHGE@F>?BCD@%                  ?Qt{|wus{}~rvoppihjbkbb_^_]Y]RWa[[[VXTMUWWTSH                  <X‚‰„~sroorsglgcgfgfgdbi_`]djbdk`_`c\d`eelzH                  BS„‹ˆ‚zdoptlklmjdfehah`W[Z]cZZ^^]V__YTSOi“9                  :NŠ”Š‡‚a{ƒ{wyysndigp_maVY[[_]`[YTZUTYZ\[k „?                  9U‹™”Œ€aƒ~uswrngkfsl\iaWZ^[Wa^YZVWWZWTVUm£„;                  9MŸ•–’‰b…~…}wookxgnbbkeWW^ZZ_\\[bP]WZ[YSq³‚8                  6S‹§§¢‘…fˆ„†„zuyqpmn^hmaXW^]S_[\Y\\XXUTVZ}Ã‚,                  	3Kˆ³¡¤›d‰‚ww}vyyqt^dhke]XgfU[[Y[]^Z[[U[R€Äx*                  
5OŠ¶·¨£•d†‰†{wotkt`khkf[VfcbZ`Rb]WYXWW\[„Ê}.                  6O€Å³¯§©eˆ‰„‰xqlqkgjiff]Vfjb_a]bQ_X\[[XVŒÓt$                   /H}Æ¾·¬Ÿk„Šƒ€|pvtpolbf`]gbhk`cR^`^YTV\[…Öt                   /GvË¼¼­«l…‚~{yzzqzlqbff`k`hiX\WcYV\]\U_ŒÒl                   0NoÔÇ¼±ªo‰…ˆvpsynuonahgYi\k[[[hY_bYZXW^—Ën                   'ErÊÀ¹¯¦k€†{€rwlqpkp_gh_iWeXbadcYX^aZZ_œÉh                   'CeÆ¾¸¬¥p€ŒŒ€x€tojfgg_kf\jW`XjcTc^[YX[U\¤Ëd                    Ee·´µ¨¡q‚‡~ˆ~s‚wrmglf`je^g][d`\^^ca[`[Z`§Ê^                   @Y¯¸®§£v{‡ƒ~yrwpqgidkhjbibWdY[g_XZZ\WWd¯½c                   @_¦°¦¡–xv…ˆ}|€tupsmkinklcdfYe\\f`b]`]W\b²·\                   AY¢¤Ÿ˜yp~~{yxrposklmilc_qcbfc`_Z\_[[ZbÂ©Z                    >Xœ—sn…ƒ~sq}njnynftjqfboc^h^bb\[Za]YaÈ«W                    7TŒ””’umz‚turqtnivinuglg]lbdc`d`ca^VY[fÏ£U                    <P‘‹‚yp€xw}zhwvummrrcph^ikebbba`[[_W[hĞ›K                    9Sy‹„†‡sly‚yzrxqqubnnvcti]cmd]g`\`^\Y_]cË‹A                    	2Nwˆ‚‚tbtwsrlznmldjkodvi^\j`bbaga^XVUKW¢Œ>                    6Jm‚}ypjxtnsulpmnmhmgevh_ZebgXZXRWVX[TZWg>                    5Ol}}{yqfmtvvxnupkspojmtlY]SX]XWXYXTXXVXWZ&                     1JiwpvuncmqwnntqsvslfYcc_]`X\UVZ\YYZT_Q>/                      2Icuyxoqarqnqnnafj`b\[ZW]]b]`fV``_H8"                          +Cdtjqsl_eglke]\ac\ebghfcde^cbD/                              (C[mpqpsfjbba]ekppqlsqkikV=&                                   '<Wfglmi^emv|ƒ€tsvzyoT4                                        BSgnifoxˆ|u~—uU0                                            BUhgilo}…˜’{U(                                                 ;T`uu{kT.                                                      9C-                                                                                                                                                                                                                                                                                                                                                                                                                                                                                                                                                                                                                                                                                                                                                                                                                                                                                                                                                                                                                                                                                                                                                                                                                                                                                                                                                                                                                                                                                                                                                                                                                                                                                                                                                                                                                                                                                                                                                                                                                                                                                                                                                                                                                                                                                                                                                                                                                                                                                                                                                                                                                                                                                                                                                                                                                                                                                                                                                                                                                                                                                                                                                                                                                                                                                                                  