/* XPM */
static char *sync13-13[] = {
/* width height num_colors chars_per_pixel */
"    64    48       97            2",
/* colors */
".. c #040204",
".# c #7c5e4c",
".a c #443224",
".b c #6c462c",
".c c #9c7654",
".d c #946644",
".e c #241a14",
".f c #745234",
".g c #5c3a24",
".h c #84664c",
".i c #3c261c",
".j c #84563c",
".k c #946e54",
".l c #1c120c",
".m c #bc967c",
".n c #ac8264",
".o c #7c5a3c",
".p c #8c5e3c",
".q c #6c4e34",
".r c #5c422c",
".s c #9c6e4c",
".t c #543a24",
".u c #7c5234",
".v c #140e0c",
".w c #ac7e64",
".x c #ccae94",
".y c #8c664c",
".z c #845e3c",
".A c #bc9274",
".B c #744a34",
".C c #a47a5c",
".D c #c49e7c",
".E c #64422c",
".F c #0c0a04",
".G c #543624",
".H c #b48a6c",
".I c #6c4a2c",
".J c #2c1a14",
".K c #442e1c",
".L c #947254",
".M c #24160c",
".N c #c4967c",
".O c #342214",
".P c #9c725c",
".Q c #7c5634",
".R c #d4ae8c",
".S c #8c6a4c",
".T c #84624c",
".U c #64462c",
".V c #0c0604",
".W c #4c3224",
".X c #9c7a5c",
".Y c #946a54",
".Z c #74563c",
".0 c #5c3e2c",
".1 c #845a3c",
".2 c #b48664",
".3 c #8c6244",
".4 c #744e34",
".5 c #9c7254",
".6 c #543e2c",
".7 c #b48e74",
".8 c #34261c",
".9 c #040604",
"#. c #6c4634",
"## c #9c765c",
"#a c #946a4c",
"#b c #241e1c",
"#c c #74523c",
"#d c #d4a68c",
"#e c #846654",
"#f c #3c2a1c",
"#g c #946e5c",
"#h c #1c160c",
"#i c #bc9a7c",
"#j c #ac866c",
"#k c #7c5a44",
"#l c #8c5e44",
"#m c #9c6e54",
"#n c #543a2c",
"#o c #7c523c",
"#p c #14120c",
"#q c #845e44",
"#r c #a47a64",
"#s c #644234",
"#t c #b48a74",
"#u c #6c4a34",
"#v c #2c1e14",
"#w c #442e24",
"#x c #94725c",
"#y c #241614",
"#z c #c49a7c",
"#A c #7c563c",
"#B c #d4ae94",
"#C c #644634",
"#D c #4c3624",
"#E c #845a44",
/* pixels */
"................................................................................................................................",
"................................................................................................................................",
"................................................................................................................................",
"................................................................................................................................",
"...............................9.e.8#h..........................................................................................",
"..............................#f.t.B#q.##b......................................................................................",
".............................V.K.0.Q.u.1.z#u#h..................................................................................",
".............................F#D#u.U#o#u.4#u#A#C.l..............................................................................",
".............................l.W.b#u#A.Q.4.4.4.f.u.0.l..........................................................................",
"............................#p.W.0.q.1.B.u.p#A.u#A.u.f.g#p......................................................................",
".............................v#D.t.3#A.j#A.4.u#o.f#o.u.4.4.g.l..................................................................",
".............................l#D.E#A#A.4.4.4.4#o.u.j.4#c.4.4.I.t.l..............................................................",
".............................M.t.u#c#q.j.Q.j.u#..Q.u#o.u.4#u#u.4#u.t.l..........................................................",
".............................e#n#u.Z#A.4.j.4.f.f.4.q#..u.f.4.B.4.b#u.I.G.l......................................................",
".............................e.G.0.s#l.1.f.4.4#o.4#u.4.b#u.4.4#u.4.b#..q.U.G.l..................................................",
".............................e.0#C.s#l.4#o.4.u.4.f.u.u#u.4#u.4.u#u.f#u#..b#u.E.W.v..............................................",
".............................O.t.u.S#E.z.j.j#A.u.4#o.B.q.4.4.4.f.b.4.E.4.q.b.E.U.E#D.v..........................................",
".............................O.0#c.3.y.4.u.Q.4.u.B.4#u.u.4.B.4.u.U#u.0.U#..I#C.U.b.E.E.K........................................",
"............................#v.t.4#x.3.p#c#o#A.u#A.4.Q#o.u#u.u.u#u.I.r.B.U.b#..4#C.b.U.r.v......................................",
".............................i.0#..2#l.4.p.j#o.Q#o.u.4.4.4.4.4.u#u.B.U.I#..U.E.r.U.4.3.Q.l......................................",
"............................#f.t#C.7#l.3#A.u.Q#A.B.Q.4#..4.4#u#A.B.I#o.E#..b.U.E.0#u#m#A#y......................................",
".............................a.0.z#j#q.u.u#c.u.4.u.4.4.4.4.u#u.u.I#u.4.E.U.U#s.E.r.4.5.o.e......................................",
".............................K.E.o#t#l.3.j.1.u.1.j.4#o.4.u#u.b.u#u.U.b#u.E#..I.E.E.4.P#E.e......................................",
".............................W#n#c.m.3.f.1.f.j#o.u.f.4.u.4#u#u.u#u#..E.4.E.b.0.U.E#u.P.z.e......................................",
"............................#D.g#k#d.1#l.u.1.u.4.B#o.f.4#u.B.I.4#u.E.0.U#..U#..E.E#u.5#q.J......................................",
"...........................F#D.0.d.R.z#o.4#o#o.1.Q.f.B.4.B.B#u.u#u.b#C.b#C.b.U.E.E.q##.y#v......................................",
"...........................V.W.r.k#B.3.p.p#A.u.1#A.B.4.q.j.f.b.4#u.b.b#u.E.0.E.U.E.4#r.5.i......................................",
"...........................V.W.E.h.x.j#A.j.u#A.4.4.4.u.f.u.4.B.4.I#..f.B.r.b.r.0.0#..C.c.i......................................",
"...........................F.W.t.T#B.1.1#u.4.u#A.u#A.u.f.u.f.f.4#u.b.4.U.4#u.U.b#..4.C.k.i......................................",
"..........................#p.W.t.P#d.z#o.1#A.B.u#A.Q.4.4#u.4.u.f.B#C#u.b.U.0.E.E.r#u.X###f......................................",
"...........................l.W.U###z#A.1.1.u.f.4.4.B#u.B#C.B.4.u#u.b.E#..0.E.U.E.0.4.C.n.K......................................",
"...........................l#D.U#r.A.j.f.4.j.Q#o.f.B.4.q.B#C.4.4.E#u.E.I#..I#..I.E#C.C#j#f......................................",
"..........................#p.G#u###j#A.1.j#o.u.f.u.f.4.u.4.b.4.u#C.b.E#u#u.E.E.0.E#u.C.7#D......................................",
"...........................e.G.0#g.n.u#A.p.f.q.B.4.u.4.4#A.b#u#u.b#u#u.4.U.E.U#u.b#u.P#i#D......................................",
"...........................e.t.6.C.w#A.u.B.f.4#o.B#u.4.4.B#u.I.4#u#u.B.I.E.E.E.0.0.I.k.D.G......................................",
"...........................M.W.q.C.5#A#c.4#o#A.u.4.f.B.4.U.B#u.B.E.I.4.b#C.E.U#..b.U.Y.7.t......................................",
"...........................e.a.j.C#a.f.1.p.4.u.4#A.u.4.4.E.f#u.I#..4.U.0.4.I#C.E.0#u.y.A.0......................................",
"...........................O.G.U#e.y.j.4#o.u.q.u.4.4.u.4#u.u.B#u.b#u.E.E.E.E.E.0.E.U.T.N.t......................................",
"...........................8.G.E.T#q.u#c.B.f.B#o#..B.4.q.4.f.I#..U.4.U#s.0.E.U.E.r.B#q.H#.......................................",
"..........................#v.t#s.y#q.4.1#A.4#A.4#A.f.u.f.u.4.4.I#C.u.B.I.I#..U.b.0.E#E.A.U......................................",
"...........................O#n#u.L#q.4.4.1.4.1.u.u.u#o.4.u#o.4.f.4.4.4.4.u#u#u.4.4.4#C.o#.......................................",
"..........................#f.t.4#a#A.q.4#..u.u.4#u.4#u.4.4.B#u#u#.#u.I#C.E#u.U.E.E.r.E.U.0......................................",
"..........................#v.a.g.E.b.U.E.b.0.E.E.0.E.0.0.U.0.0.g.0.0.t.G.t.G.t.t#n#D.G#w#v......................................",
"...........................9.O#w.W.W.W#w.i.8.i.8.i.i#v#v#v.J.e.J.l#p.l.v.l.v.F.V.v.V.F..........................................",
"................................................................................................................................",
"................................................................................................................................",
"................................................................................................................................",
"................................................................................................................................"
};
SIMPLE  =                    T                                                  BITPIX  =                    8                                                  NAXIS   =                    2                                                  NAXIS1  =                   64                                                  NAXIS2  =                   48                                                  HISTORY Written by XV 3.10a                                                     END                                                                                                                                                                                                                                                                                                                                                                                                                                                                                                                                                                                                                                                                                                                                                                                                                                                                                                                                                                                                                                                                                                                                                                                                                                                                                                                                                                                                                                                                                                                                                                                                                                                                                                                                                                                                                                                                                                                                                                                                                                                                                                                                                                                                                                                                                                                                                                                                                                                                                                                                                                                                                                                                                                                                                                          %36985*),(+)!  

	                                 #5CJNMJPDJIFIFFKFEBCG?;>>@=@:;6"                                -@Vt^TXPZXWSTSUWUQROQONKPMJKHGME                                &@RxfWVcXc\\Z\W[[XXVYWVZRSTUWOaM                                "@JneVa_X_Y^Z[YZVYONZSRONNOGIfšO                                (>Hlh\ZSZT[PSWTXWOPLVLMFJMHGUe”P                                %>Moo_X^ZU[XXZXR\SRNSJHIIIFHKiŸB                                6`ƒsZbeV\T^ZVVIXSQOTMFTPMJFSpœB                                7T„{^[W[_ZYXTVNSSSKQWNOINONMq—?                                @B„Š`ZUZU\TRVWUQQXSRTQJJIEFSx¥>                                >EwŒZ_gZTTX[YW_NRRMRQUJJLQNRz¡:                                =S}Ž`ca\[YX[XXWNYZNOJQSJJDISœ9                                9Hˆ›`ZV_^\ZUWTRNWVKPJQOPQOLM1                                9N~£]edYZXUTRTMTVZSNKPFJJIGU„Š2                                8?{°e[caTZ^^UWSVYYTNPLLGLIGQ/                                8AkµdeSU]_Z_[Z[ZYVQOWNTQLONV„y,                                	5Jl²a]b[^VWW[Y[WTWROXSINHFFP},                                9Iw¸kgi_^b^RWU`XQURNORGGJKJY„{*                                :Erµf]W[Zc][TTUURXQOLNNNKKHT}o#                                ;Aa¯eh[c\YU[ZVRRRYPLFLNMPIJS|g                                 8CX¡kZcX`ZZYW[XRQZSOIUKOEMHQ{i                                 3Hb’ijad[e_U[Y[RQZQMMRINQGJX|c                                 5Cdi[YZZYYXXTXXR[QRXHLKLLIT{a                                 2?R“ik`\]]T]VQWWS]RQ]LOPKGDSx_                                 +CPiZh`]^]\WVVVX\RSMQMMKGLUm]                                 $AUzkgZY_\^T_^YSYZRPHSNNNVPNMF                                 %BZlnX[_X\TWQ[WUYZNPCNPPNMNJI7                                 'A\qcg``^ZW]STWVTZOVLUTNJJK:                                   BKxiV[X[VZ[\RUSV]QXSPNTJ9                                     >FvicYVX]URVOTTYSTOOSM<                                       AR\_V`XYZWSO[[UTVPQQ>                                         >\Wg_^c[O^\Z[WQTTSA                                           ;I`_WVWW]\`XYTWOA                                             8Ck]b_X[Z[]\XWB                                               9CWcVZe^]^\YB                                                 6PQ^`XWWY]D                                                   
:NM\QVO_N                                                     5F^[deS                                                       .?Shf                                                           )                                                                                                                                                                                                                                                                                                                                                                                                                                                                                                                                                                                                                                                                                                                                                                                                                                                                                                                                                                                                                                                                                                                                                                                                                                                                                                                                                                                                                                                                                                                                                                                                                                                                                                                                                                                                                                                                                                                                                                                                                                                                                                                                                                                                                                                                                                                                                                                                                                                                                                                                                                                                                                                                                                                                                                                                                                                                                                                                                                                                                                                                                                             