/* XPM */
static char *sync7-7[] = {
/* width height num_colors chars_per_pixel */
"    64    48      105            2",
/* colors */
".. c #040204",
".# c #845e3c",
".a c #443224",
".b c #b48a6c",
".c c #6c462c",
".d c #9c765c",
".e c #241a14",
".f c #c4a284",
".g c #6c523c",
".h c #946a4c",
".i c #bc967c",
".j c #3c261c",
".k c #7c5234",
".l c #5c422c",
".m c #1c120c",
".n c #94623c",
".o c #b4825c",
".p c #d4ae94",
".q c #6c4e34",
".r c #ac866c",
".s c #7c5a3c",
".t c #84664c",
".u c #543624",
".v c #ac7a5c",
".w c #34261c",
".x c #9c7254",
".y c #140e0c",
".z c #c49274",
".A c #cc9a7c",
".B c #342214",
".C c #d4a684",
".D c #9c6a44",
".E c #140a04",
".F c #8c5e3c",
".G c #bc8a64",
".H c #744a34",
".I c #a47654",
".J c #6c5a4c",
".K c #c49e7c",
".L c #84563c",
".M c #644a34",
".N c #24160c",
".O c #5c3e2c",
".P c #0c0a04",
".Q c #6c4a2c",
".R c #2c2214",
".S c #cca284",
".T c #c49674",
".U c #7c5644",
".V c #64422c",
".W c #94664c",
".X c #744e34",
".Y c #845a3c",
".Z c #5c3a2c",
".0 c #0c0604",
".1 c #4c3224",
".2 c #b48e6c",
".3 c #2c1a14",
".4 c #745234",
".5 c #946e54",
".6 c #442a1c",
".7 c #7c563c",
".8 c #1c160c",
".9 c #946644",
"#. c #8c664c",
"## c #543a24",
"#a c #ac7e5c",
"#b c #9c6e54",
"#c c #442e1c",
"#d c #8c623c",
"#e c #a47a5c",
"#f c #cca684",
"#g c #64462c",
"#h c #040604",
"#i c #845e44",
"#j c #b48a74",
"#k c #6c4634",
"#l c #9c7a5c",
"#m c #946a54",
"#n c #3c2a1c",
"#o c #7c523c",
"#p c #946244",
"#q c #bc8664",
"#r c #6c4e3c",
"#s c #7c5a44",
"#t c #34221c",
"#u c #9c6e4c",
"#v c #bc8e6c",
"#w c #a4765c",
"#x c #6c4a34",
"#y c #c4967c",
"#z c #744e3c",
"#A c #845a44",
"#B c #4c3624",
"#C c #2c1e14",
"#D c #74523c",
"#E c #1c1614",
"#F c #d4b29c",
"#G c #8c6654",
"#H c #543a2c",
"#I c #ac7e64",
"#J c #442e24",
"#K c #8c6244",
"#L c #cca68c",
"#M c #644634",
/* pixels */
"................................................................................................................................",
"................................................................................................................................",
"................................................................................................................................",
"................................................................................................................................",
"...................................................................................................P............................",
"............................................................................................#E.J#x.V##.m........................",
".........................................................................................w.g.t#x#x.X#k#c........................",
"....................................................................................#n#r#D.M.X#x.Q.Y.V.a........................",
"...............................................................................y.a.q#x.q#x.X.X.O#x.7.X##........................",
"...........................................................................N#H.X.X.X.k.X.X.k.7.V#x.c#x##........................",
".......................................................................w.Q#o.4.7.X#x.X.X#o.k#x#g.4#z.X.O........................",
".................................................................0##.L.Y#o.4.k.X.X#x#o.7.X.X#o.V.H#K.4##.0......................",
".............................................................N.l#p.F.F.7.X.X.H.X.X.7.X.M.X#x#M.Q.X#p.4.O.E......................",
".........................................................B#x#p.F.F.k.X.X.X.X.7.Y.7.X.4#x#x.4.4.V#x.U.Y.O.P......................",
"..................................................#h.6.7.F.L.Y.k.4.H.7.Y#d.L.7.Y#D.4#D#x#x#x#x.V.4#A.7.c.y......................",
"...............................................y#B.H.4.Y.X.X.H.4.L#p.F.D.F#K#o.7.X#o.H.X.7.X#x.V.k.W.##k.m......................",
"...........................................8.u#g.c.H.c.X.X.X.Y.F.F.9.F.F#A.7.k#x.7.X.4#o.c#x.4#M#x#u#i.l.N......................",
"......................................#h.1.O.O#g.Q#M.Q.X.F.L#d.Y.7#p.F.Y.7.k.4.Y.4#x.k#g.q.H#x#k.4#.#K#k.8......................",
".......................................m.O#g.I#i#x.X.X.4.L.Y.9.F.7.n.7#o.7.X#o.k.X#D#x.X.4#x#x.c.X#..h#k#C......................",
".......................................8.O.c#v#q.X.H.X.k.k.Y.n.L.L.F.L#o.k.4#o#x.4#x#k#M.V#g.X#g.X.x.5#g.R......................",
".......................................8.Z.Q#v.o.7#g#x.X#o.L.F.X.k#K.k.4.L.k.4.X#x.Q.X.7.H.X#M.V#x#e#w.k.B......................",
".......................................N.O#M.G#q.X.H.X.k.4.k.7.H.k.7.4#o.X.X.X#o.X.X#x#g.k#k.k#k.k.d#I#x.B......................",
".......................................8.O#x.z#q.4#k.X.k.X.X.4.X.X#o.k.X.4.X#x#g.X#x.V.k.V.X.V#g#k.x.r.X#n......................",
".......................................e.O.H.T#a#x.Q.X#x.k#k.H.H.4.X.X.k#x.H.X#x.H.H#x#M#x#x#M#g#x.d.2.q#c......................",
"......................................#C.O.Q.z.v#x.X#k#g.X#M#g#k.X.H.k.X#x.H.X.X.Q.q.X.c.4.Q.X.X.k#e.K.7#J......................",
".......................................B.Z.H.2#e.Q.O.X#x#k.k.V#k.q#k.4.X.X.X#g#g#g#k.c#x.V#k#g.O.V.d.p#o.u......................",
".......................................R.O.Q.z#e#x.c#g.X.V.q.O#g.H#g.H.q.c#x#k#k.X.c.l#x#k.X#x.X#x.h#F.q.O......................",
".......................................B##.X.A.v#x#g.c#M.c.X.V.c.X#g#x.c#x#x.c#g#k#g.X.c.q.V#k.Q.V#..p#i.V......................",
".......................................B.O.V#y.I#g.V.V.O#x.H.O.V.X.V.V.V#g.V.c#x.c.V#M#g.V#x.c#g#k.h.p.L.O......................",
".......................................B#H.X.K.x#k.l#g.V.H#g#g#x.H#x.V.c#M.V#k#g#M.c.V.X#x#g.X.X#x.W#f#i.O#h....................",
".......................................j.O.4.f.I#g.c.V#x#g.O.H.V#x#g#g.X.V#x#g.c#M.c.V.l.X.H#g.O.V#i.i#i.O.0....................",
"......................................#n##.X.C#w.V.O.V.Q.Z.O.X.V#x.c.V#k.O.Q#M.V.c#k.X#x.V.V#k.X.V#i.r.F.V.P....................",
".......................................6###x#f.x#g.V.O.V.O#g#x#g.Q#M.V#g.Q.V.c#M#g.l.V.V.V.Q#g#g.O.7#j#i.l.P....................",
"......................................#J###x.S.5.V.c.V#H.V.V.Q.O.Q.V#g.Z.V.V.V.c.V#x.O#g#g#k.H#g.V.7.b#A#g.m....................",
"......................................#n.u.L#L#b.V.u.l.V.V#x.c.O#x.V.V.O.V.O#H.O#g.V.V.V.V.l#g.H.l#x#l#i.c#E....................",
"......................................#J###x.C#..O#g.O.l.Z.V#g.V#g.O#x.O.O.V#g.V.V.O#x#k#k.V#x.O.V.4#G#K#g.m....................",
".......................................1###x.S#..V.V.O.O.V.O.V.Z#g.V.V.V.O#g.c.V#g#x.V.Q.H.X.V#g.Z.k#m#s#x.N....................",
"......................................##.u.X.S#K##.Z##.O.V#B.V.O.O.O.V#g.V.O#x.O.O.O.V.O.Q.O#g.c.l#x.5#i.V#C....................",
"......................................##.u.4.A#D#g.O.V.Z.V#B##.O.O.O.O.V.V.O##.O.O.V.Q.V.V#g.V.O###x#..Y#M.B....................",
".......................................1##.7.T.7####.V.l.O.O.O.Z.V.V.V#x.Q#g#k.Q.V.Q.H.X#x#o.X.X#g#k.7.s.V.R....................",
"......................................#B.u#x#D#g.V#g.H.q.c.Q.Q.Q.V#g#g.Q#k.H#x.c.X#x#g#x.Q#x.H.X.c.q#D.U.X#t....................",
".......................................1#B##.u.O##.O.Z.O.Z##.O.O.V.O.Z.V.O.O.V.l.O.O.O.O.c.O.V.V#x.V.7.7.Q.j....................",
".......................................R.1.6#J#c#c.a#c#c.1.1.1#B#c.1.1.1.a#B.1.1#B.1.u#B.u#B.u#B.u.O.O.V#H#C....................",
"........................................#h.0.P.P.0.P.P.m.m.y.m.m.m.N.e.e.e.e.3.e#C.B.w.w.B.w.R#n.6#n#c#c.R......................",
"................................................................................................................................",
"................................................................................................................................",
"................................................................................................................................",
"................................................................................................................................"
};
SIMPLE  =                    T                                                  BITPIX  =                    8                                                  NAXIS   =                    2                                                  NAXIS1  =                   64                                                  NAXIS2  =                   48                                                  HISTORY Written by XV 3.10a                                                     END                                                                                                                                                                                                                                                                                                                                                                                                                                                                                                                                                                                                                                                                                                                                                                                                                                                                                                                                                                                                                                                                                                                                                                                                                                                                                                                                                                                                                                                                                                                                                                                                                                                                                                                                                                                                                                                                                                                                                                                                                                                                                                                                                                                                                                                                                                                                                                                                                                                                                                                                                                                                                                                                                                                                                                                 				"$*(%'%,1020#                             $42433625767:56785:79:8;:<<<:=CCKA"                             8;?=C@BBEA?FEHFDHDEHHDDEGLGHIQK^aQ+                             =>PXLINTSPSQPJNMQPSRMXRKSPRSWNTY`U(                             8?\ `??IHFDDDIHKQPMNQKPUVR[WXMN^aH$                             @=[¦ZJFGCI:@DFEDKJF@FEJOKGLJCARobO%                             ?>V«kABAEG=HEFDHLJEPEDDJFPFNLIQxfJ                              9?Q©nKHDGHEHDMIIJCMMKMRIQUTJMB\tdQ                             4AR±oFLCICJMGKEQEFIKLGFQOMKPGGZpjL                             .>`­yG>HFJROFQKJEJDCENILJKFNTGT€gM                             2=Q¬vKLIBGJPGOKLCIJJOGQELLOSMI`’dM                             0?S­}MKEJFKTJRNILPIOLKHJJLQKLE`“fG
                             /BV¯€JFLQCCVJQLKNFRMKPNWQJIOVKc”iH                             ,BZ©€NMKQLEUJSMLUKRKNNPKGVSNDJfžfF                             'BU¤|LFMHTKLOTOJMLKOLKNKVPNUUQo¯gF                             &DL¡MJIGQUFJVKKKLKNQOINKLROLOr¶aD                              '?X¥…PMNNMWJNWMRMRQNNNLVOTKOPJp¸fJ                              &DRŸƒRNNVKSGKSNSTOPPOTOGROSQVRt¹VC                              %CR—‚PGTSOYKMTNZVXUMMLPPRKPMEK~¸\=                              $CSŸ„RUQLUOLRXT[YRSWUQTUMYRWUYƒ¥^5                              GT ˆSQUQZOTRYWVYSUUSSTRMTONLR˜T4                              DSœ”YOWYYWYWW\ZXZUSMURJXIVJKQ|W/                              CK—‘TTV[[Z`U]^Y[WUU\WVRN[P\PY}‰S'                              BQ˜Ž]MRYYbjV\k\Xa[ZWRPW]UVLJR…€[#                              EO™’XSYZZcla`l`^^Y[RXTOKKMULVywM%                              GK|gQUYY`dpd`l_[_V\YWXQWXSSNUpsQ                              9FFKPOQUfalc`nga^ZZdYSYNUTQOZokN                                >MPSNUWWbhgqhjc`[T_U[[OTXLSwfI                                  <TZcXXUYbmktgl\]W\TU^VPK[pdP                                    1^h`a[ZT]ek`_cZXYSSRPJXcaM                                      &UmkfZYVSZ^a`XZRQXYIT^cH
                                         Hoih_VVUXV]WPXRMQWnYD                                           ?ad\YZTWSZ^WV^GUkYB	                                             *Q][^URXWZ[SKZXVC                                                CXVUZXU[_IROS@                                                   7WQTSVWGR^X?                                                     /WVOTQPaJ7                                                        +]lRRWO3                                                          ^RJB                                                            	                                                                                                                                                                                                                                                                                                                                                                                                                                                                                                                                                                                                                                                                                                                                                                                                                                                                                                                                                                                                                                                                                                                                                                                                                                                                                                                                                                                                                                                                                                                                                                                                                                                                                                                                                                                                                                                                                                                                                                                                                                                                                                                                                                                                                                                                                                                                                                                                                                                                                                                                                                                                                                                                                                                                                                                                                                                                                                                                                                                                                                                                             