/* XPM */
static char *sync8-8[] = {
/* width height num_colors chars_per_pixel */
"    64    48       94            2",
/* colors */
".. c #040204",
".# c #845e44",
".a c #443224",
".b c #b48e74",
".c c #6c462c",
".d c #241a14",
".e c #745234",
".f c #cca284",
".g c #8c6a4c",
".h c #5c3a24",
".i c #1c120c",
".j c #ccae94",
".k c #84563c",
".l c #3c261c",
".m c #7c5a3c",
".n c #dcaa84",
".o c #5c422c",
".p c #140e0c",
".q c #94664c",
".r c #6c4e34",
".s c #8c664c",
".t c #7c5234",
".u c #ccaa8c",
".v c #9c6a4c",
".w c #140a04",
".x c #8c623c",
".y c #543624",
".z c #342214",
".A c #a47a5c",
".B c #c49a7c",
".C c #744a34",
".D c #d4a284",
".E c #946a4c",
".F c #24160c",
".G c #442e1c",
".H c #64422c",
".I c #7c5644",
".J c #0c0a04",
".K c #6c4a2c",
".L c #a4765c",
".M c #5c3e24",
".N c #dcb28c",
".O c #7c5634",
".P c #0c0604",
".Q c #846244",
".R c #4c3224",
".S c #2c1a14",
".T c #9c7254",
".U c #cca684",
".V c #1c160c",
".W c #845a3c",
".X c #442a1c",
".Y c #744e34",
".Z c #8c624c",
".0 c #543a24",
".1 c #34261c",
".2 c #cc9a7c",
".3 c #946e54",
".4 c #64462c",
".5 c #040604",
".6 c #bc9274",
".7 c #6c4634",
".8 c #74523c",
".9 c #8c6e54",
"#. c #5c3a2c",
"## c #d4ae8c",
"#a c #3c2a1c",
"#b c #7c5a44",
"#c c #e4aa84",
"#d c #5c4634",
"#e c #14120c",
"#f c #7c523c",
"#g c #d4aa8c",
"#h c #9c6e54",
"#i c #8c6244",
"#j c #34221c",
"#k c #a47e64",
"#l c #d4a684",
"#m c #946a54",
"#n c #241614",
"#o c #442e24",
"#p c #6c4a34",
"#q c #5c3e2c",
"#r c #dcb294",
"#s c #7c563c",
"#t c #84624c",
"#u c #4c3624",
"#v c #2c1e14",
"#w c #9c765c",
"#x c #845a44",
"#y c #744e3c",
"#z c #543a2c",
"#A c #cc9e84",
"#B c #644634",
/* pixels */
"................................................................................................................................",
"................................................................................................................................",
"................................................................................................................................",
".........................................................................................i.p....................................",
".....................................................................................V#d.o.o.R..................................",
"..................................................................................#j.0#q.Y.4.c#e................................",
"...............................................................................J.R.0.0.4.7#p.C.V................................",
"............................................................................#v#q#q#q.h.o.7.K.Y.F................................",
".........................................................................J#u#q.4.H.c#z#q.4.Y.Y.z................................",
".......................................................................z#q.H.o.H.c#p.0.7.Y.e#p.z................................",
"...................................................................J.0#p.K.H.K#p.Y.0.R.c.Y#s.C.1................................",
".................................................................S.t.Y.7.4.7.Y.Y#z.y.a#z#s.t.r.l................................",
"...............................................................M#s.Y#p.c.C.Y.4.H#q.0.R.K.8.W.Y.G................................",
"...........................................................F.e.t.Y.7.K#p.Y.H.H.H.o.R.a#p.C#s.Y.G................................",
"........................................................#u.Y.t#p.4.Y.Y.Y.7.H.H.o.h#u.y#q.e#i#s.R................................",
".....................................................p.H.C.Y#p.H.Y.x.k.Y#p#p.4#q#q.y.G#q#s.v#s.G................................",
"...................................................z.4.4.4.H.c#s.k.k.e.t.C.H.4.H.0#z#u.Y.W.s.e.R................................",
"...............................................P.G#q#q.H#p.Y#f.t#f.t.Y.C.4.4#q#z#q.0.R#q.W.g.8.M................................",
"...............................................l.4#p#p.H.c.e.Y#s.Y.Y.c.H.4.H.H.M#q.y.G#q.W.3.q.H................................",
"...............................................G#p.2.E#p.7#f.K.Y.Y.4#p.4.7#q.H.4.H#z.R.K#x.A.m.H................................",
"..............................................#a.Y.n#h.C.Y.Y.c.Y.7.H#p.Y.H#q.0#u#q.y.G#q#x#k.#.4................................",
"...............................................y.Y#c.3.Y.4.4.7.Y#p.H.C.K.4.H.H#q.0.0.R.H.m.b.v.c................................",
"...............................................0.e.n#h.K.H.H#p.K.7.4#p#q#q#q.o.M#q.0#a.H.W#A.s.K.P..............................",
"..............................................#u.C.D#h#B.4.H#p.4.H.H.H.M#q.0.y#q.0#u.R.K#s#g.E.7.J..............................",
"...............................................0.e.D#h.Y.4.Y#p.c.H.H#q#q#q#q#q.0#z#..G.y.8##.T#p.J..............................",
"...............................................0.t.D.s.H#q.H.K#q.H#B.h#q.H.0.0.y.H.0#o#q#x.j.3#p.w..............................",
"..............................................#u.C.f.q.c.o.H.H#z.H#q.o#q.M#q#..M#z.y.G.4#s.u.L.e.J..............................",
"...............................................0.e#l#i.4.H.o.H#..4#q.H.o#.#q.H#u.M#q#a.H#y.U#w.e.F..............................",
"..............................................#u.t#A.Z.o.H.h#q.0#q.M.H.H.0.y#u#.#q.R.R.0.t.B.L.Y#n..............................",
".............................................5.y.Y.D.#.4.H#q#q.0.H#..H.0#u#q.0#q.M#q#a.H.e.b#w.Y.F..............................",
".............................................P#u.Y.U.Z#..0#q#q.0.H.0.0#z#..M.H.0.y#z#a#.#p#k.T.r.F..............................",
".............................................J#z.Y###b.H.0#..0.y.H#q#u.y#q.0#z.R#q.0.G.R#p.9.3.O.d..............................",
".............................................J.y#p.N#i#q#q.M#z.0#q.h#z.h#q.0.0.y#z.h#o.y#f.3#m.Y#j..............................",
".............................................J.R#p#r#b.0#z.h#q.0#q.0.0#z.y.y.0#q.0#q.G#u.K.T#t#p.z..............................",
".............................................J.y.t###b.o.0.y.y#z.h#z.0.0#u#z#q.R.h.a.G#z.H.E.g#f.1..............................",
".............................................w.R.r.u.I.h.y#z.y.0#q#u.y.0#..M#z.y.0.h#a#z.C.Q.Z.Y.l..............................",
".............................................J#u.C.f#s#u#z#u.y.0#z.0.R.0#.#u.0#q#u#z.G.0#p.I.Q.4.G..............................",
".............................................p.R#s.B#y#..0.0.y#q.0.y.y.0.0.y.R.0.0.y.G.R.H.8#s.r.G..............................",
".............................................i#u.t.B.8.0.y#u.0#z.y#u#z.0.R#u.y#z#..0#a.R.o.r#b.t.R..............................",
".............................................V.y.Y.6.K#z.h#q#q.H#z.0.H#q#..H.H.H.4.H.H#..4.Y#x#f.G..............................",
".............................................i.a.c.r.7.o.H.H.H#q.H#q#q.o.H.H.4#q.H.o.H.y.o.8.m.4.G..............................",
".............................................i.G#z#u.R#u#u.R.0#u.y.y#u.R#u.R.R#u.y.0.R#u.H.Y#y.4#u..............................",
"..............................................#a.G.X#o.G.G#a.G.G.a.G#a.G.G#a#o.G.X#o#a#o.R.0.0.y#j..............................",
"...................................................J.J.P.J.p#e.i.p.d.S.d.S#j.z.1#v#a.G.G#a#o.G.1.5..............................",
".............................................................................................P..................................",
"................................................................................................................................",
"................................................................................................................................",
"................................................................................................................................"
};
SIMPLE  =                    T                                                  BITPIX  =                    8                                                  NAXIS   =                    2                                                  NAXIS1  =                   64                                                  NAXIS2  =                   48                                                  HISTORY Written by XV 3.10a                                                     END                                                                                                                                                                                                                                                                                                                                                                                                                                                                                                                                                                                                                                                                                                                                                                                                                                                                                                                                                                                                                                                                                                                                                                                                                                                                                                                                                                                                                                                                                                                                                                                                                                                                                                                                                                                                                                                                                                                                                                                                                                                                                                                                                                                                                                                                                                                                                                                                                                                                                                                                                                                                                                                                                                                                                                                   	%$("-33.14(                                     ,30231-544203402303/29A>>%                                     3?;9;:8=:=<9996::=?9<HXTM=                                     7NSNIJIIGIEEHJJLEHHI=GXcK3                                     =TOBBCGF@BJCCGIJLKJANVeZ5                                     ;\£Z><<?A=;?@9<=>C>-8GTb[7                                     9[¨WA??=C?==??;;?>>1:JY_T4                                     
;T­]=A<<?@?7@B:=E:B3?Q_hL4                                     9T¯^A=><@E=<?ADA>>A-BSimV,                                     <\·cF?>=AB??>:@E8B63?Lsr\(                                     8Sºb=BBDBAA>@<>@E>C4;O|hQ'                                     ;R¹jFDC@?GABBEA>>?@1=\vtX'                                     
@V¶dJ>BB=HF:=C?@8E@3:Qtz]                                     =U®lCBFD>HB@?BCHA??.AS…zT                                     =W­gMIGAAIBG@;F@EDE/HZ—~V                                      ;\ªlHGDF?FEJHA>=BD86B[£€X                                      ?Y¯kNGGIBLFIFBEH;AF.HX­Z                                      =S¬pNGIKBJFFGDE@DC=3J_²€X                                      ?[®qIEJPFHMCFG@@?GA5Eb¶xQ                                      @Z¬yWLWQNLJFCFCF@?C1>[´{S                                      <S®xNKKRNIJJCF@<D?<8Q_³tP
                                      AZ´zOKJQQONQGBGGDH>1HdªlQ                                      =V·yWLMOWPJTONJIC??8Fb•vP                                       0T´xTUVOVQKQYIEB9D;5GdˆgJ                                       4P¥tRQZPWVLQLNCJMJB5Pd‚cM                                       -NQQLMYV_TVOKKJGDF<5FaylH                                       4DEJST[\]^TULME@F@5Gcq[F                                         'OKMKN^_bY[SHMHBA8VapY8                                          HUUSJUkaVSQMCF<4F`t^5                                           ;XZSLWXVOJJHB;<DYja6                                             Z[WNQQWKIHF96QS_T6                                              G^YQNTTOJF?5QZdX0                                                 ZVPMNUTC<6B_\T,                                                 BRQKQSU@6NV`S)                                                   %GHGJPO@OVZQ&                                                    :FKJOADMWU&                                                      "DCF@FOSU                                                       7B@NPQS                                                        '?DUNN                                                          LIH8                                                                                                                                                                                                                                                                                                                                                                                                                                                                                                                                                                                                                                                                                                                                                                                                                                                                                                                                                                                                                                                                                                                                                                                                                                                                                                                                                                                                                                                                                                                                                                                                                                                                                                                                                                                                                                                                                                                                                                                                                                                                                                                                                                                                                                                                                                                                                                                                                                                                                                                                                                                                                                                                                                                                                                                                                                                                                                                                                                                                                                                                            