/* XPM */
static char *sync10-10[] = {
/* width height num_colors chars_per_pixel */
"    64    48      237            2",
/* colors */
".. c #000000",
".# c #010000",
".a c #060403",
".b c #080503",
".c c #0c0805",
".d c #0c0806",
".e c #0e0906",
".f c #100b07",
".g c #110b07",
".h c #110c08",
".i c #120c08",
".j c #130c08",
".k c #130d09",
".l c #140d08",
".m c #140d09",
".n c #160e09",
".o c #170f0a",
".p c #17100a",
".q c #17100b",
".r c #18100a",
".s c #1a120d",
".t c #21160f",
".u c #22170f",
".v c #221710",
".w c #241810",
".x c #251910",
".y c #251911",
".z c #251c17",
".A c #281b12",
".B c #2a1c13",
".C c #2b1d13",
".D c #2c1d13",
".E c #2c1d15",
".F c #2c1e13",
".G c #2c1e14",
".H c #2d1d15",
".I c #2d1e14",
".J c #2e1f15",
".K c #2f1f15",
".L c #2f1f16",
".M c #302015",
".N c #302016",
".O c #302116",
".P c #322217",
".Q c #332216",
".R c #332217",
".S c #342318",
".T c #352418",
".U c #362419",
".V c #362519",
".W c #372518",
".X c #372519",
".Y c #37251a",
".Z c #38251a",
".0 c #382619",
".1 c #39261a",
".2 c #3b281b",
".3 c #3c281b",
".4 c #3c291b",
".5 c #3d291b",
".6 c #3d291c",
".7 c #3e2a1c",
".8 c #3f2a1c",
".9 c #3f2b1e",
"#. c #402c1c",
"## c #402c1d",
"#a c #412c1d",
"#b c #412c1e",
"#c c #422c1e",
"#d c #422c1f",
"#e c #422d1d",
"#f c #422d1e",
"#g c #422d1f",
"#h c #432d1f",
"#i c #442e1f",
"#j c #442e20",
"#k c #452f1f",
"#l c #453020",
"#m c #462f20",
"#n c #462f21",
"#o c #473020",
"#p c #473021",
"#q c #473120",
"#r c #483020",
"#s c #483021",
"#t c #483120",
"#u c #483121",
"#v c #493121",
"#w c #493221",
"#x c #4a3221",
"#y c #4a3222",
"#z c #4c3323",
"#A c #4d3423",
"#B c #4e3423",
"#C c #4e3523",
"#D c #4f3523",
"#E c #533826",
"#F c #553927",
"#G c #563a27",
"#H c #563b26",
"#I c #573a27",
"#J c #573b27",
"#K c #583b28",
"#L c #583c27",
"#M c #593b28",
"#N c #593c29",
"#O c #5c3e29",
"#P c #5d3e2a",
"#Q c #5d3f29",
"#R c #5d3f2a",
"#S c #5e3f2b",
"#T c #5e402a",
"#U c #5e422c",
"#V c #5f402a",
"#W c #5f402b",
"#X c #5f412b",
"#Y c #60412b",
"#Z c #61412c",
"#0 c #61422b",
"#1 c #61422c",
"#2 c #61432c",
"#3 c #62422c",
"#4 c #63432c",
"#5 c #63432d",
"#6 c #634831",
"#7 c #64432c",
"#8 c #64432d",
"#9 c #64442c",
"a. c #64442d",
"a# c #65442d",
"aa c #66452e",
"ab c #66462f",
"ac c #694a33",
"ad c #6a4730",
"ae c #6c4831",
"af c #6d4933",
"ag c #6d4a32",
"ah c #6d4b33",
"ai c #6e4a34",
"aj c #6e4b34",
"ak c #6f4a32",
"al c #6f4b32",
"am c #6f4c33",
"an c #6f4c34",
"ao c #704c32",
"ap c #704c34",
"aq c #704d33",
"ar c #704f36",
"as c #714d32",
"at c #714d35",
"au c #714e35",
"av c #724e34",
"aw c #734e34",
"ax c #734e37",
"ay c #73533a",
"az c #74523a",
"aA c #754e35",
"aB c #754f34",
"aC c #754f37",
"aD c #755037",
"aE c #765035",
"aF c #765036",
"aG c #765038",
"aH c #774f36",
"aI c #775035",
"aJ c #775137",
"aK c #775238",
"aL c #785238",
"aM c #785339",
"aN c #795236",
"aO c #795338",
"aP c #79533a",
"aQ c #79553c",
"aR c #7b5337",
"aS c #7b543a",
"aT c #7c563c",
"aU c #7d553c",
"aV c #7d573c",
"aW c #7d5a42",
"aX c #7e583d",
"aY c #7f573c",
"aZ c #7f593e",
"a0 c #7f5a3f",
"a1 c #7f5b42",
"a2 c #80583c",
"a3 c #80583d",
"a4 c #825b40",
"a5 c #825d42",
"a6 c #835b3f",
"a7 c #845c3f",
"a8 c #845e42",
"a9 c #846045",
"b. c #855d43",
"b# c #855d44",
"ba c #855e43",
"bb c #855f44",
"bc c #865c3f",
"bd c #865c41",
"be c #865d42",
"bf c #86634a",
"bg c #876146",
"bh c #876249",
"bi c #885f41",
"bj c #896043",
"bk c #896146",
"bl c #896347",
"bm c #8a6347",
"bn c #8b6347",
"bo c #8b674f",
"bp c #8d6247",
"bq c #8d6344",
"br c #8d6448",
"bs c #8e6146",
"bt c #8f6444",
"bu c #90674b",
"bv c #916545",
"bw c #916646",
"bx c #926547",
"by c #946a4e",
"bz c #956a4d",
"bA c #956e52",
"bB c #987158",
"bC c #99765b",
"bD c #9c755c",
"bE c #a1765b",
"bF c #a27c63",
"bG c #a88267",
"bH c #ac866c",
"bI c #bc9276",
"bJ c #be9479",
"bK c #be997e",
"bL c #cca084",
"bM c #cfa78b",
"bN c #d3a88e",
"bO c #d4af94",
"bP c #d5b094",
"bQ c #e0bda2",
/* pixels */
"................................................................................................................................",
"................................................................................................................................",
".................................................................d.z.s..........................................................",
"...............................................................p#v#O#Z.1........................................................",
"..............................................................#k#VaAaeak.d......................................................",
"..............................................................#w#Q#9#2al.m......................................................",
"..............................................................#A#HasaHao.l......................................................",
"..............................................................#x#LalagaB.h......................................................",
".............................................................a#x#YawavaI.i......................................................",
".............................................................f#C#TaEaJaB.i......................................................",
".............................................................i#D#7aqaKaN.m......................................................",
".............................................................g#C#7aFa2aR.k......................................................",
".............................................................o#t#3aOaXam.j......................................................",
".............................................................y#ya#aLa4ap.n......................................................",
".............................................................t#taaaKbpai.r......................................................",
".............................................................u#q#0aMbmaj.x......................................................",
".............................................................v#r#Xa6byax.w......................................................",
".............................................................G#t#4aZbAaG.A......................................................",
".............................................................N#w#1bjbEaU.K......................................................",
".............................................................8#o#Ya8bCa3.D......................................................",
".............................................................8#z#5a5bGaV.B......................................................",
".............................................................4#u#8bnbIay.B......................................................",
"............................................................#a#waabrbLbd.B......................................................",
"............................................................#.#BaabzbMbs.D......................................................",
"............................................................#k#iadblbPbe.Q......................................................",
".............................................................7#y#Wa9bQb..F......................................................",
".............................................................0#c#3bubObx.C......................................................",
".............................................................X#pa.bgbNbq.I......................................................",
".............................................................S#i#3bnbKbw.K......................................................",
".............................................................T.9#QbkbJbv.J......................................................",
".............................................................X#h#PbbbHbt.G......................................................",
".............................................................0#b#SbabFbi.M......................................................",
".............................................................O#n#Ra0bDa7.W......................................................",
".............................................................R#h#SaQbBbc.8......................................................",
".............................................................L#j#OaZboaY.Z......................................................",
".............................................................E#g#NaTbfaS.Z......................................................",
".............................................................H#d#MarbhaD.3......................................................",
".............................................................U#n#FaPaWaC#e......................................................",
".............................................................1#h#Eaca1an.5......................................................",
".............................................................X#m#Kaub#at##......................................................",
".............................................................6#s#Iahazaf.2......................................................",
".............................................................P#i#G#U#6ab.V......................................................",
".............................................................q#b#j#l#J#W.u......................................................",
"...............................................................c.Y#f#m.N.#......................................................",
"...................................................................e.b..........................................................",
"................................................................................................................................",
"................................................................................................................................",
"................................................................................................................................"
};
SIMPLE  =                    T                                                  BITPIX  =                    8                                                  NAXIS   =                    2                                                  NAXIS1  =                   64                                                  NAXIS2  =                   48                                                  HISTORY Written by XV 3.10a                                                     END                                                                                                                                                                                                                                                                                                                                                                                                                                                                                                                                                                                                                                                                                                                                                                                                                                                                                                                                                                                                                                                                                                                                                                                                                                                                                                                                                                                                                                                                                                                                                                                                                                                                                                                                                                                                                                                                                                                                                                                                                                                                                                                                                                                                                                                                                                                                                                                                                                                                                                                                                                                                                                                                                                                              
                                                            )14#                                                          134AG                                                         %3@HMM(                                                         -5ARYQ,                                                         )4BVfU0                                                         *2>QcT-                                                         (4?\bX1                                                         !1BVjX,                                                          2C_k])                                                         #3Eao`)                                                         &2F]ze/                                                         $4Fb~e)                                                         *1FgÖh#                                                         )2Egèm!                                                         '/Ejûo"                                                         '3Il°o"                                                         )5Ki≤l!                                                         *1Ip∑o                                                          .7Ghƒf!                                                         43Ok∏f%                                                         0:Lt∞l                                                          07Lm™f                                                         -6JlúZ                                                         /9Jeä_                                                         /5Hf}a                                                          #7IiÄ^"                                                         !6JawY                                                         5GdtW                                                         5I[lS                                                         6LZlR                                                         7K[dT                                                         6I[`T                                                         :JYa\                                                         ;JTZ[                                                         :FXZW                                                         7HVVY                                                          7BSRW                                                          9AUXT                                                          7EKIS                                                          4GWPR	                                                          6EH*                                                            	                                                                                                                                                                                                                                                                                                                                                                                                                                                                                                                                                                                                                                                                                                                                                                                                                                                                                                                                                                                                                                                                                                                                                                                                                                                                                                                                                                                                                                                                                                                                                                                                                                                                                                                                                                                                                                                                                                                                                                                                                                                                                                                                                                                                                                                                                                                                                                                                                                                                                                                                                                                                                                                                                                                                                                                                                                                                                                                                                             