/* XPM */
static char *sync12-12[] = {
/* width height num_colors chars_per_pixel */
"    64    48       85            2",
/* colors */
".. c #040204",
".# c #846244",
".a c #4c3224",
".b c #bc9274",
".c c #644a34",
".d c #1c1a14",
".e c #7c5234",
".f c #9c7a5c",
".g c #ccaa8c",
".h c #946e54",
".i c #64422c",
".j c #7c5a3c",
".k c #342214",
".l c #1c120c",
".m c #946644",
".n c #5c3e2c",
".o c #744a34",
".p c #3c2a1c",
".q c #140e0c",
".r c #b48a6c",
".s c #d4a68c",
".t c #8c5e44",
".u c #5c3a2c",
".v c #cc9a7c",
".w c #84563c",
".x c #c4a68c",
".y c #845a3c",
".z c #140a04",
".A c #8c6244",
".B c #543a24",
".C c #c49a7c",
".D c #7c5644",
".E c #ac8264",
".F c #6c462c",
".G c #6c4a2c",
".H c #2c1a14",
".I c #7c5634",
".J c #dcb69c",
".K c #cca284",
".L c #3c261c",
".M c #24160c",
".N c #946a54",
".O c #745234",
".P c #0c0a04",
".Q c #543624",
".R c #bc967c",
".S c #a47a5c",
".T c #9c765c",
".U c #64462c",
".V c #7c5e44",
".W c #34261c",
".X c #946a4c",
".Y c #845e44",
".Z c #8c664c",
".0 c #6c4e34",
".1 c #442e1c",
".2 c #0c0604",
".3 c #84624c",
".4 c #4c3624",
".5 c #241a14",
".6 c #7c523c",
".7 c #9c7a64",
".8 c #c4a28c",
".9 c #7c5a44",
"#. c #34221c",
"## c #1c160c",
"#a c #5c422c",
"#b c #744e34",
"#c c #14120c",
"#d c #bc8e6c",
"#e c #845a44",
"#f c #140a0c",
"#g c #8c624c",
"#h c #543a2c",
"#i c #c49a84",
"#j c #ac866c",
"#k c #6c4634",
"#l c #6c4a34",
"#m c #2c1e14",
"#n c #7c563c",
"#o c #e4ba9c",
"#p c #cca28c",
"#q c #74523c",
"#r c #644634",
"#s c #442e24",
/* pixels */
"................................................................................................................................",
"................................................................................................................................",
"................................................................................................................................",
".........................................2.5.k.d................................................................................",
".........................................1.B#l.0#m..............................................................................",
".......................................l.B.n.e.o.0.L............................................................................",
"......................................#c.B.n.O.o#b.U.a..........................................................................",
".......................................M.Q.n#b.O.F#b.U.n.2......................................................................",
".......................................5.Q#h#k#n.e#b#l#b.i#c....................................................................",
".......................................5.B.n.c#q.e#l.o.I#b.U.M..................................................................",
".......................................5.B.n.e.O#b#b#b#l#b#b#l.k................................................................",
".......................................5.B.F.t#n#k#b#b#b.e#b.o#l.1..............................................................",
".......................................H.4#a.Y.y.e#b#b#k.U#b.G#b.i#s.P..........................................................",
".......................................k.B.F.A.t.y#b#l.o.U.6#l.F#a.G.Q.P........................................................",
"......................................#m.B#l#g.j.F#b#b#b.F#l.O.o#r.U.U.n.l......................................................",
".......................................L.4#l.Y#n.w#b.o#r.F#k.G#a.F.i.i.i#a.M....................................................",
".......................................k.4#l.Z.t.I.e#l.U#b.G#k.i.n#l.U.i.i.n.k..................................................",
"......................................#..B#b.N.A#r#b#b.e#l#l.U.i.i.U.i#k.U.n.i.p................................................",
".......................................k#h#b.h.A.y.e#b#l.F.F.n.U.n.i.n.n.U#k.n.n.W..............................................",
".......................................1.n#q.E#e#b#l#b.i.i#a.i.U.i.n.i.B.i.G#l.O.4..............................................",
".......................................p.n.O.r.Y.e#b#l.o.U.i.i#k#a.u.n.i#h.n#n.X.Q..............................................",
".......................................a.n#q.b.m.O.w#b.e#l#k#l.U.i.n.i.i.i.U#q.h.B..............................................",
".......................................a.B#n.R.m.e.0.o#l.U#b.F.U.i.n.U.Q#h.i.6.h#a..............................................",
".......................................a.B.j#i.j.w#b#l.i.U.F#k.o#a.i.i.n#a.i#q.S.n..............................................",
".......................................1.n.9#p#e#l.w#b.I#l.U.F.0.F.i.B.G.n.i.6.E.a..............................................",
".....................................P.a.u.9.g.A.e#b#b#b.F#l.U#l.i.i.u.B.n#a#n#d.G..............................................",
".....................................2.4.u.#.J.A.I#l#b#l#l.o.i#b#a.i.U.u.i.i#q#d#l..............................................",
".....................................2.a.n.Z#o.Y.o#b#b.i.F#l.G#l#a.i.G.i.n.n#n.v#l..............................................",
".....................................P.4.n.Y.g.y.O.e#b#b#l.n#b.G.i.i.U.n.n.n.O.C.G..............................................",
".....................................2.a.B.#.K#n.6#l#b#b.G.u.0.o.i.U.n.i.B.n#b.C.F..............................................",
".....................................q.a.n.Z#i.y.G#b.o.i#l.i.G.G.n.i#h.n.F.i#q.C#r..............................................",
".....................................l.1.i.3.b.t.6.0.U#b.F#b#k#l.i.U.i.u.B.n#q#i.I..............................................",
".....................................q.1.n.##j.0#b.F.w#b.U.o.n.G.n.n.U.n.n.n.0.8.e..............................................",
"....................................##.4.u.3.7.o#b.O#b#l#l#b#a.i.n.i.i.U.n.U.6.x#l..............................................",
".....................................l.a#a.A.f.O.e.e.i#l.G.F.n.i.n.i.i.n.n.u.O.x.e.P............................................",
".....................................q.4.i.V.T.w#l.i#l.G.o#r.i.i.i#a.i.i.n.n.O.s#q.P............................................",
".....................................M.4.i#g.h.e#b.6.G.o.F.U#k.U.i.i.n.B.n.i.O.s.O.z............................................",
".....................................5.B.n.9.X#l#l#l.F#l#r.i.U.i.n.n.n.n.n.n#l.K.y.P............................................",
".....................................M.B.n.9.Z#b#b#k.i.c#b.i#b.i.n.n.u.i.n.n.O.C.y.P............................................",
".....................................5.B.n.D.Y.e#l.G.e#b#b#b#k.U.n.i#a.i.B.u#b.b#q#f............................................",
"....................................#m.Q#a#q.9.e#l#b#l#b.e#l#b#b.G#b.G.F.c.U.U#q#b.z............................................",
".....................................5.B.n#q.j#b#l#l.G.o#l.U.F.i.U.i.i.i.i.n.n.u.B.P............................................",
".....................................l.1.Q.n.F.i.n.n.n.n.B.B.Q.4#h.Q.a.4.a.Q.4.1.1..............................................",
"......................................#m.p.4#s.a.1.L.p.L#..H.5.H.l.l.l.z.P.P.P..................................................",
"...........................................2....................................................................................",
"................................................................................................................................",
"................................................................................................................................",
"................................................................................................................................"
};
SIMPLE  =                    T                                                  BITPIX  =                    8                                                  NAXIS   =                    2                                                  NAXIS1  =                   64                                                  NAXIS2  =                   48                                                  HISTORY Written by XV 3.10a                                                     END                                                                                                                                                                                                                                                                                                                                                                                                                                                                                                                                                                                                                                                                                                                                                                                                                                                                                                                                                                                                                                                                                                                                                                                                                                                                                                                                                                                                                                                                                                                                                                                                                                                                                                                                                                                                                                                                                                                                                                                                                                                                                                                                                                                                                                                                                                                                                                                                                                                                                                                                                                                                                                                                                                                                                                             17855*,+'
		                                          2<EMIFFFCB?><??9;8=:41                                        =FYbUSORTQLNKNIIIFECD>                                        !<G^`ZRWTXZTVVQURONNMXV                                        AD`e\RPZWWUOKDJGI@CUZ                                        AFcnVXNJNVLTJFFBJEDX¥b                                        >G`rQTRNSMHOIFECDFFP«`                                        9ImwZWZQTOJOLIIGAFJX±[                                        :Id`RKSPSNHLHFLHCGY°[                                        7Ik€YZZJSRPEHGILEDBX¬[
                                        ;BjSWYVRSTHKCJGKGK[¬U                                         6BiŽUWP_XLTEPGELGEEU¨[                                         4Giœh]TJUNWNRIMJAAE[¥^                                         8Eq¥`QYTKSJPPFI?GLIW¢P                                         	;>g¬a]RVVQCTTHLFIAEW¤P                                         
9Dh±bYZWXPFVQHKKEEC[£Q                                         8CpÃhSWTKOQQSGJOJFDa¤T                                         
:Cj¾k]QWQQSJVGKNCHJZ˜R                                         	7Ba°m[XVVOQMSKJA@DH^™Q                                         6Cb«dS_Y]RLNTMK@QDJ[‰:                                          7Aa¤a`XSHNOPTHIHEGKZ‚C                                          9A]žoZUUOKUOMHGM>AG[{G                                          7EYoZ^W[SNPNIDIGJMYu@                                          1D[‘i[WRRLKKMHBDJ?G]t>                                          3BZŠdWSVJLHHKJGJBHOT[<                                          '@V{hc[USONGKEHHBNPED*                                          '@VrlNWU[RQMJILIOOFH0                                          ';Tmj^ZTKTPNKFQLKGF'                                            *<Qf_^XSLOPQHNJJGH                                             "?OlbPVTWMSWTOKLE                                              %APjibWRTL\SOGP=                                                :FidYYTONXQUK8	                                                <Nh]RVWYZVSR3                                                 AG[YVXWRWVS&                                                   >BN[[RS^XK                                                    >AN`YWTWI                                                     <EVZPVNE                                                      ?EWUTN7                                                       ?F]TT-                                                         3AQU"                                                           '                                                                                                                                                                                                                                                                                                                                                                                                                                                                                                                                                                                                                                                                                                                                                                                                                                                                                                                                                                                                                                                                                                                                                                                                                                                                                                                                                                                                                                                                                                                                                                                                                                                                                                                                                                                                                                                                                                                                                                                                                                                                                                                                                                                                                                                                                                                                                                                                                                                                                                                                                                                                                                                                                                                                                                                                                                                                                                                                                                                                                                        